<svg xmlns="http://www.w3.org/2000/svg" xmlns:xlink="http://www.w3.org/1999/xlink" width="431.478" height="512.453" viewBox="0 0 431.478 512.453"><defs><linearGradient id="a" x1="0.5" x2="0.5" y2="1.544" gradientUnits="objectBoundingBox"><stop offset="0" stop-color="#41f0ff"/><stop offset="1" stop-color="#9300bf"/></linearGradient></defs><g transform="matrix(0.951, -0.309, 0.309, 0.951, -144.474, 37.749)"><g transform="translate(120.327 97.199)" opacity="0.54"><path d="M317.381,148.811c8.36-21.79,30.346-37.878,53.689-39.158,12.505-.685,25.864,2.344,32.434,13.99,6.861,12.164,6.6,27.35,2.768,40.417-7.8,26.622-30.207,44.54-51.751,60.122-10.592,7.661-20.925,15.573-29.414,25.6a185.755,185.755,0,0,0-20.577,30.776c-6.107,11.1-11.573,22.537-17.56,33.7-5.6,10.447-11.621,24.815-22.972,30.022-24.514,11.243-56.13,4.119-78.714-8.236-11.216-6.136-22.287-14.4-35.554-14.933-11.967-.48-22.109,6.9-26.682,17.711-9.666,22.838,8.139,46.258,26.423,58.389,22.114,14.673,50.661,17.821,76.151,11.818,27.964-6.586,52.4-23.32,72.965-42.864,5.783-5.5-2.975-14.234-8.747-8.748-19.072,18.126-41.564,33.6-67.507,39.683-23.252,5.454-49.249,2.094-68.861-12.124-9.842-7.137-19.579-18.307-20.686-30.913-1.164-13.242,8.994-23.308,22.182-19.65,12.781,3.544,23.713,12.849,35.92,18a117.054,117.054,0,0,0,40.161,9.339c12.5.566,25.852-1.032,37.412-6.009,11.755-5.064,18.2-15.841,24.352-26.505,12.925-22.424,22.41-47.211,38.551-67.669,16.787-21.272,41.862-33.129,60.75-52.239,18.247-18.463,31.85-43.6,28.75-70.292C419.235,125,413.2,110.711,400.475,103.4c-11.117-6.388-24.87-7.239-37.289-5.246-26.14,4.2-48.315,22.821-57.734,47.369-2.854,7.44,9.1,10.658,11.929,3.289Z" transform="translate(-120.327 -97.199)" fill="#008eb7"/></g><g transform="translate(156.773 133.557)"><path d="M325.449,133.611s-19.793-14.537-42.68-9.279-33.4,18.557-43.918,48.249,1.855,45.773,1.855,45.773-4.949-1.7-8.2-.928-2.783-2.475-4.483,0c0,0-7.114-.773-6.032,4.793,0,0-10.825.465-16.546,15.465,0,0-10.517,9.9-12.527,11.289s-1.855,3.093-2.628,3.711-2.012,3.867-3.4,4.485-12.062,3.712-17.475,6.34-9.433,5.413-11.6,7.887-5.155,2.835-6.8,7.268-3.608,14.227-4.535,15.465,4.123,3.505,7.525-3.918l1.855,6.082s2.165,4.535,5.155,0l1.135-11.444s1.65,8.042,3.4,8.557,3.711.31,3.505-4.948c0,0,6.8,9.9,17.835,7.525a21.536,21.536,0,0,1,5.258-2.165c3.093-.825,5.36.515,13.3-2.475a47.181,47.181,0,0,0,16.6-.618s4.819,13.067,5.36,18.247-1,6.959-.31,9.278,6.495,18.4,6.573,21.573-.232,12.449-1.006,13.841-3.634,5.1-.618,13.143c.463,1.547-2.706,9.589-4.02,11.676s-11.135,21.109-6.959,33.479c.465,2.553-1.237,14.692-.773,18.79s-4.175,8.119,3.247,21.262c1.7,4.795,3.453,18.815,4.485,22.32s2.886,17.63,2.886,20.1,5,12.268,5,12.268,2.531,11.237,11.294,16.8c2.783,2.577,2.99,4.123,4.123,4.845s4.124,5.463,11.959,4.535,12.57-6.185,13.605-6.907,3.2-.928,5.88-1.546,8.865-5.052,9.381-6.495,2.269,0,2.269,1.855-3.093,13.917,7.835,17.114,21.546-20.1,21.546-20.1,1.857-9.381.929-16.083c-.1-2.475,2.268-6.082,2.576-7.835s2.269-10.825-.411-16.082-14.537-5.773-14.537-5.773a29.345,29.345,0,0,0-8.865-2.269,21.088,21.088,0,0,0-13.4-4.02l-2.269-3.093s2.062-11.237,2.475-13.608,2.268-4.845,2.887-6.082a29.153,29.153,0,0,0,1.133-15.774s6.495-14.742,7.835-21.958l5.567-1.65a75.986,75.986,0,0,1,10.412,17.01c4.124,9.588,16.392,17.01,16.392,17.01s3.093,5.567,6.289,7.939,1.855,5.36,12.473,8.35c0,0,.31,9.175,19.589,11.34,7.731-.1,9.793-17.32,2.886-26.185,0,0,8.3-16.8,1.959-28.867a37.39,37.39,0,0,0-3.557-16.237s.465-17.783-2.938-23.815-1.7-20.412-2.01-23.35-2.63-16.083-10.465-12.99a40.519,40.519,0,0,1,.206-12.99,86.55,86.55,0,0,0,.412-17.525s7.682,1.906,12.784-1.65c0,0,8.66,3.865,12.835,1.392s28.608-25.207,28.608-25.207L370.6,214.024s-7.32-6.392-17.216,3.093c0,0,5.36-17.525.412-29.485S343.7,146.446,325.449,133.611Z" transform="translate(-145.128 -121.936)" stroke="rgba(0,0,0,0)" stroke-miterlimit="10" stroke-width="1" fill="url(#a)"/><path d="M304.722,538.837a8.639,8.639,0,0,1-2.433-.35c-10.577-3.093-9.26-13.8-8.826-17.323.054-.441.1-.777.1-.978a1.807,1.807,0,0,0-.2-.831c-1.6,2.281-7.381,6.085-9.932,6.676-.809.185-1.573.337-2.274.473a11.222,11.222,0,0,0-3.177.881c-.135.094-.337.279-.614.525a24.587,24.587,0,0,1-13.553,6.6,13.587,13.587,0,0,1-12.187-4.182,7.531,7.531,0,0,0-.583-.538,5.645,5.645,0,0,1-1.618-1.8,15.857,15.857,0,0,0-2.6-3.106c-8.547-5.495-11.344-15.893-11.7-17.357-.993-1.952-5.064-10.121-5.064-12.7,0-2.453-1.841-16.372-2.836-19.754-.446-1.514-.99-4.731-1.621-8.456-.826-4.878-1.852-10.936-2.808-13.7-5.614-9.986-4.518-14.964-3.716-18.6a9.58,9.58,0,0,0,.37-3.033,73.425,73.425,0,0,1,.423-10.7,62.3,62.3,0,0,0,.376-7.926c-4.569-13.789,6.994-34.245,7.116-34.437,1.311-2.081,4.023-9.279,3.877-10.669-2.941-7.92-.508-12.01.533-13.758l.2-.334c.54-1.124.942-9.4.851-13.21-.055-2.232-3.6-12.624-5.307-17.616-.6-1.748-1.049-3.075-1.214-3.63a7.928,7.928,0,0,1,.016-3.858,18.786,18.786,0,0,0,.247-5.647c-.434-4.158-3.812-13.832-4.932-16.957a48.722,48.722,0,0,1-15.674.473A28.7,28.7,0,0,1,195.7,295.1a12.092,12.092,0,0,0-2.845.3,20.484,20.484,0,0,0-4.926,2.023l-.181.111-.21.045c-8.178,1.758-14.116-2.653-17.051-5.617a4.207,4.207,0,0,1-1.434,2.609,3.789,3.789,0,0,1-3.465.407c-.958-.282-1.777-1.515-2.462-3.159L162.6,297.1l-.168.255c-1.187,1.8-2.486,2.666-3.9,2.566-2.117-.146-3.276-2.452-3.4-2.713l-.068-.172-1.02-3.349c-2.113,2.936-4.381,3.356-5.4,3.379a3.133,3.133,0,0,1-2.928-1.408,1.751,1.751,0,0,1,.156-1.89,51.919,51.919,0,0,0,1.9-6.522c.777-3.025,1.658-6.452,2.469-8.631a11.293,11.293,0,0,1,4.77-5.763,12.368,12.368,0,0,0,2.263-1.889c2.317-2.648,6.575-5.556,11.988-8.185a129.749,129.749,0,0,1,14.2-5.236c1.583-.515,2.951-.96,3.316-1.122a8.092,8.092,0,0,0,1.744-2.379A7.213,7.213,0,0,1,189.9,252.1a4.471,4.471,0,0,0,.272-.588,6.491,6.491,0,0,1,2.425-3.175c1.55-1.074,9.122-8.109,12.177-10.98,4.844-12.434,13.071-15.206,16.252-15.819a4.483,4.483,0,0,1,1.146-3.145c1.595-1.735,4.318-1.9,5.645-1.861a2.312,2.312,0,0,1,1.41-.891,2.076,2.076,0,0,1,1.666.6,1.583,1.583,0,0,0,1.711.359,14.5,14.5,0,0,1,5.819.159c-3.1-5.836-8.627-20.874-.359-44.216,11.169-31.535,22.475-43.91,44.806-49.041,23.088-5.3,42.725,8.78,43.682,9.48,14.509,10.214,20.757,30,25.32,44.44,1.271,4.02,2.366,7.493,3.45,10.111,3.708,8.959,1.9,20.671.586,26.582,9.1-6.391,15.816-.712,15.89-.648l.207.233L415.6,277.374l-.78.726c-1,.932-24.58,22.851-28.821,25.365-4.054,2.4-11.093-.139-13.344-1.061-3.984,2.423-9.009,2.129-11.563,1.76a82.828,82.828,0,0,1-.533,16.213,43.658,43.658,0,0,0-.4,11.21,6.044,6.044,0,0,1,4.405.776c5.091,3.087,6.216,13.24,6.26,13.672a39.7,39.7,0,0,1-.029,4.253c-.184,5.389-.488,14.41,1.886,18.619,3.315,5.877,3.153,21.638,3.106,24.142a38.4,38.4,0,0,1,3.556,16.229c5.644,11.172-.252,25.656-1.768,29.012,4.692,6.621,4.977,16.922,2.214,22.673-1.5,3.12-3.813,4.857-6.518,4.893h-.078l-.077-.009c-16.728-1.878-19.929-9.012-20.543-11.6-7.258-2.158-8.88-4.382-10.317-6.355a8.257,8.257,0,0,0-1.8-1.973c-2.981-2.213-5.771-6.839-6.47-8.048-1.92-1.206-12.679-8.268-16.609-17.407a75.642,75.642,0,0,0-9.716-16.08l-4.061,1.2c-1.491,6.893-6.632,18.873-7.615,21.13A30.425,30.425,0,0,1,294.67,442.9c-.172.346-.436.784-.74,1.288a14.467,14.467,0,0,0-2.035,4.453c-.359,2.065-1.968,10.848-2.379,13.094l1.559,2.126a22.512,22.512,0,0,1,13.245,4.078,30.517,30.517,0,0,1,8.706,2.256c1.781.106,12.567.972,15.352,6.436,2.693,5.282,1.124,13.671.609,16.428l-.081.43a14.19,14.19,0,0,1-1.1,2.971c-.671,1.5-1.507,3.368-1.454,4.6.935,6.711-.874,15.983-.951,16.375l-.088.273C324.889,518.632,315.546,538.836,304.722,538.837ZM293.2,516.5a2.136,2.136,0,0,1,.342.029c1.378.24,2.5,1.878,2.5,3.653a12.811,12.811,0,0,1-.119,1.281c-.7,5.653-.522,12.427,7.065,14.645,8.043,2.349,17.11-13,20.012-19.3.221-1.179,1.718-9.554.89-15.534-.087-1.93.839-4,1.657-5.829a13.9,13.9,0,0,0,.928-2.391l.084-.456c1.281-6.845,1.152-11.842-.381-14.85-1.931-3.786-10.391-4.964-13.488-5.1l-.234-.009-.214-.1a28.231,28.231,0,0,0-8.424-2.164l-.4-.019-.313-.249a20.015,20.015,0,0,0-12.55-3.754l-.677.045-2.986-4.071.1-.524s2.059-11.227,2.472-13.6a16.308,16.308,0,0,1,2.353-5.31c.265-.436.495-.815.645-1.116a28.225,28.225,0,0,0,1.026-14.983l-.074-.382.156-.355c.064-.146,6.453-14.693,7.751-21.686l.139-.745,7.067-2.094.522.617a76.571,76.571,0,0,1,10.6,17.321c3.916,9.1,15.777,16.369,15.9,16.441l.279.171.161.285c.03.055,3,5.365,5.945,7.548a10.5,10.5,0,0,1,2.326,2.5c1.311,1.8,2.666,3.656,9.747,5.65l.871.245.03.906c0,.065.695,8.127,18.407,10.142,2.158-.069,3.5-1.931,4.249-3.489,2.53-5.265,2.171-14.838-2.394-20.7l-.476-.611.341-.7c.081-.164,7.942-16.391,1.974-27.745l-.152-.289.01-.328c0-.084.245-8.444-3.421-15.632l-.143-.279.009-.315c0-.174.415-17.511-2.78-23.174-2.715-4.815-2.4-14.269-2.2-19.919.059-1.747.11-3.256.04-3.91-.272-2.595-1.718-9.776-5.081-11.815a3.963,3.963,0,0,0-3.7-.155l-1.376.544-.291-1.452a41.375,41.375,0,0,1,.2-13.425,85.852,85.852,0,0,0,.4-17.227l-.145-1.718,1.674.412c.072.017,7.21,1.722,11.78-1.463l.573-.4.638.284c2.25,1,8.734,3.216,11.7,1.457,3.116-1.847,18.986-16.31,27.617-24.323l-42.287-61.757c-.9-.7-7.049-4.9-15.441,3.14l-3.424,3.281,1.385-4.535c.052-.172,5.171-17.249.453-28.651-1.124-2.718-2.236-6.237-3.524-10.313-4.457-14.111-10.563-33.439-24.4-43.169l-.02-.014c-.2-.142-19.632-14.136-41.673-9.071-21.342,4.9-32.2,16.878-43.028,47.456-10.14,28.63,1.551,44.452,1.671,44.608l2.469,3.242-3.854-1.318c-.045-.016-4.65-1.574-7.508-.9a3.938,3.938,0,0,1-3.63-.673c-.036.049-.077.107-.122.171l-.418.609-.735-.08c-.844-.088-3.265-.075-4.279,1.033a2.517,2.517,0,0,0-.4,2.294l.275,1.411-1.436.062c-.405.02-10.109.683-15.444,14.669l-.1.265-.206.2c-.433.407-10.608,9.977-12.67,11.405a4.092,4.092,0,0,0-1.548,2.088,3.639,3.639,0,0,1-1.012,1.572,10.32,10.32,0,0,0-.795,1.253c-.779,1.339-1.66,2.854-2.878,3.4-.46.2-1.535.556-3.554,1.213a130.661,130.661,0,0,0-13.881,5.109c-5.123,2.488-9.1,5.182-11.208,7.589a14.3,14.3,0,0,1-2.7,2.278,8.869,8.869,0,0,0-3.878,4.606c-.767,2.058-1.631,5.418-2.392,8.384a57.133,57.133,0,0,1-1.938,6.706,2.149,2.149,0,0,0,.823-.032c.9-.191,2.638-1.027,4.211-4.457l1.357-2.962,2.774,9.1c.242.45.821,1.21,1.307,1.242.366.027.933-.426,1.5-1.216l1.907-19.237,1.638,7.983c.739,3.6,1.974,7.181,2.643,7.663a1.418,1.418,0,0,0,1.142-.029c.188-.146.789-.845.674-3.729l-.166-4.248,2.421,3.5c.259.373,6.405,9.075,16.365,7.059a23.256,23.256,0,0,1,5.392-2.191,14.355,14.355,0,0,1,3.4-.386,26.481,26.481,0,0,0,9.777-2.051l.323-.12.339.062a46.484,46.484,0,0,0,16.12-.614l1.045-.219.369,1c.2.54,4.88,13.274,5.431,18.547a21.232,21.232,0,0,1-.271,6.318,5.855,5.855,0,0,0-.084,2.734c.161.54.6,1.835,1.187,3.541,2.718,7.965,5.378,15.945,5.436,18.356.03,1.208-.026,12.428-1.159,14.47-.065.117-.143.249-.232.4-.936,1.573-2.884,4.848-.31,11.711.706,2.35-3.075,11.091-4.133,12.77-1.8,2.857-10.7,20.971-6.834,32.426l.045.174c.252,1.381-.019,4.747-.331,8.644a74.935,74.935,0,0,0-.43,10.227,11.573,11.573,0,0,1-.414,3.844c-.718,3.26-1.7,7.725,3.509,16.949l.088.2c1.036,2.919,2.054,8.919,2.951,14.214.592,3.5,1.151,6.8,1.556,8.171,1.049,3.567,2.936,17.779,2.936,20.452,0,1.5,2.842,7.75,4.86,11.708l.106.288c.025.109,2.538,10.816,10.75,16.033l.178.138a18.4,18.4,0,0,1,3.056,3.617,3.754,3.754,0,0,0,.891,1.093,6.662,6.662,0,0,1,.981.855,11.21,11.21,0,0,0,10.166,3.495c6.26-.742,10.427-4.423,12.207-5.994.373-.33.656-.573.836-.7a11.364,11.364,0,0,1,4.116-1.279c.676-.133,1.412-.278,2.194-.457,2.381-.55,7.965-4.617,8.5-5.728A1.937,1.937,0,0,1,293.2,516.5Z" transform="translate(-145.511 -122.322)"/><path d="M298.893,191.343c-3.857,3.22-5.619,4.234-8.729,8.214a44.938,44.938,0,0,0-4.19,6.3,26.434,26.434,0,0,0-2.726,7.012l-.343,1.858a12.38,12.38,0,0,1-.612,1.881,21.752,21.752,0,0,1-1.871,3.381,56.359,56.359,0,0,1-4.706,6.054,140.989,140.989,0,0,1-10.725,10.907,140.53,140.53,0,0,0,10.489-11.109,56,56,0,0,0,4.551-6.1,21.168,21.168,0,0,0,1.76-3.334,11.919,11.919,0,0,0,.54-1.757l.313-1.909a27.113,27.113,0,0,1,2.648-7.243,45.49,45.49,0,0,1,4.136-6.5,72.729,72.729,0,0,1,10.525-11.233Z" transform="translate(-92.083 -93.059)"/><g transform="translate(180.79 54.829)"><path d="M331.451,286.363s-4.33-10.31-3.712-19.588c0,0-6.185-11.754-5.36-17.527,0,0-9.485.412-16.6-5.155-4.177-3.247-10.98-1.082-13.764-1.237s-21.03,1.219-20.721-8.747,15.44-10.891,17.771-11.2,6.661-.773,9.754-2.32,4.175-1.7,8.815-2.32,5.722-7.577,5.567-9.742-2.165-17.473-1.392-21.495c0,0-1.547-6.495.155-9.742,0,0-1.237-14.381,5.1-16.083s9.588,12.372,9.588,12.372,2.165,5.1,2.32,7.886a7.388,7.388,0,0,1,2.475,4.33s-2.32-11.443,6.185-15.463c6.495-2.165,9.433,10.67,10.207,11.6s.928,4.64,4.33,6.03c0,0,6.185-5.412,12.988,0,4.949,4.022,4.33,7.269,4.33,7.269s8.2,2.165,11.135,1.855,6.65,3.093,8.815,7.268,4.485,7.577,3.557,13.3-1.547,11.288-1.7,13.3a36.414,36.414,0,0,1,2.938,12.732c.412,7.527,5.362,23.4-1.133,35.362s-21.96,18.145-27.835,18.042S341.141,299.044,331.451,286.363Z" transform="translate(-270.054 -159.826)" fill="url(#a)"/><path d="M359.912,298.771c-8.224,0-21.249-1.051-29.061-11.274l-.158-.272c-.179-.427-4.333-10.439-3.826-19.8-.928-1.812-5.355-10.764-5.415-16.56-2.975-.1-10.21-.841-16.051-5.411-2.664-2.074-6.857-1.57-9.916-1.206a19.689,19.689,0,0,1-3.153.229c-.3-.016-.8-.013-1.443-.01-4.2.012-14,.061-18.313-4.372a7.458,7.458,0,0,1-2.135-5.638c.213-6.871,6.344-11.016,18.223-12.318.261-.029.47-.052.624-.071l.576-.077c2.289-.3,6.119-.79,8.787-2.124,3.305-1.653,4.554-1.819,9.2-2.438,3.732-.5,4.609-6.849,4.5-8.428-.032-.443-.143-1.449-.292-2.8-.589-5.331-1.671-15.139-1.126-18.75-.3-1.347-1.331-6.689.156-10.014-.19-2.647-.722-15.226,6.041-17.041a5.2,5.2,0,0,1,4.162.622c4.42,2.654,6.656,11.431,6.928,12.559a39.987,39.987,0,0,1,2.224,6.99c.4-3.842,2-8.583,7.046-10.971l.138-.055c6.36-2.122,9.643,6.816,11.045,10.631.216.59.462,1.259.557,1.424a5.357,5.357,0,0,1,.755,1.641,6.277,6.277,0,0,0,2.42,3.65,11.257,11.257,0,0,1,13.91.488c3.754,3.052,4.631,5.773,4.792,7.275,2.692.669,7.807,1.792,9.773,1.588,3.863-.408,7.913,3.825,10.042,7.929.24.465.483.919.724,1.368,1.978,3.706,3.847,7.207,2.957,12.7-.916,5.644-1.492,10.865-1.663,12.878A38.409,38.409,0,0,1,395.852,244c.093,1.676.42,3.8.8,6.266,1.314,8.518,3.114,20.185-2.082,29.754-6.625,12.2-22.359,18.689-28.783,18.689h-.161c-.667-.014-1.5.006-2.469.026S361.106,298.771,359.912,298.771Zm-27-12.647c8.206,10.577,23.043,10.276,30.193,10.132,1-.02,1.863-.036,2.562-.025h.119c5.23,0,20.315-5.812,26.608-17.4,4.8-8.835,3.072-20.025,1.81-28.2-.389-2.528-.727-4.711-.825-6.507a35.648,35.648,0,0,0-2.816-12.26l-.145-.3.025-.333c.172-2.242.818-7.88,1.713-13.4.757-4.667-.844-7.666-2.7-11.136-.243-.459-.491-.922-.737-1.4-2.042-3.939-5.372-6.852-7.588-6.608-3.068.32-10.718-1.663-11.579-1.89l-1.114-.3.216-1.132h0s.31-2.661-3.894-6.077a8.788,8.788,0,0,0-11.4-.029l-.576.5-.708-.289c-2.96-1.211-3.884-3.855-4.437-5.436a6.431,6.431,0,0,0-.382-.957,7.557,7.557,0,0,1-.918-2.071c-1.9-5.161-4.315-10.275-7.873-9.159-6.949,3.35-5.683,12.577-5.46,13.906.013.068.025.135.036.2l-2.433.449-.029-.158a6.211,6.211,0,0,0-1.987-3.437l-.45-.346-.032-.566c-.116-2.1-1.644-6.107-2.223-7.472l-.067-.205c-.569-2.459-2.724-9.245-5.818-11.1a2.776,2.776,0,0,0-2.243-.353c-4.373,1.172-4.508,11.068-4.191,14.782l.03.36-.168.32c-1.216,2.32-.446,7.2-.046,8.883l.061.258-.051.262c-.576,3,.563,13.32,1.111,18.281.153,1.4.268,2.434.3,2.891.185,2.583-1.091,10.318-6.637,11.058-4.543.6-5.489.732-8.426,2.2-3.04,1.52-7.132,2.049-9.575,2.365l-.57.074c-.165.023-.4.048-.677.08-10.462,1.146-15.851,4.489-16.02,9.935a5,5,0,0,0,1.434,3.835c3.586,3.682,12.651,3.643,16.53,3.624.709,0,1.255,0,1.59.014a19.465,19.465,0,0,0,2.721-.216c3.488-.417,8.262-.988,11.732,1.711,6.657,5.21,15.695,4.9,15.786,4.9l1.486-.062-.208,1.473c-.63,4.407,3.563,13.6,5.232,16.774l.162.311-.023.347C328.8,275.53,332.41,284.862,332.916,286.124Z" transform="translate(-270.437 -160.209)"/></g><path d="M213.676,189.243a43.154,43.154,0,0,0,2.954,7.158,52.07,52.07,0,0,0,4.09,6.7,49.161,49.161,0,0,0,25.08,18.356,61.132,61.132,0,0,0,15.676,2.771,61.442,61.442,0,0,1-15.855-2.179,50.2,50.2,0,0,1-14.6-6.753,51.044,51.044,0,0,1-11.789-11.085,53.92,53.92,0,0,1-4.508-6.783,45.044,45.044,0,0,1-3.425-7.495Z" transform="translate(-116.092 -92.397)"/><path d="M215.643,166.147s-11.135,31.754,6.185,51.547c0,0,11.855,16.907,31.444,20s28.865,1.135,39.072-8.35,18.763-14.33,22.268-32.68-4.175-35-4.175-35S288.015,147.9,259.87,149.446,216.659,162.7,215.643,166.147Z" transform="translate(-115.725 -110.247)"/><path d="M219.818,201.49a36.178,36.178,0,0,0,7.376,9.1,49.536,49.536,0,0,0,9.653,6.828,56.907,56.907,0,0,0,5.4,2.457c.929.346,1.836.753,2.781,1.048l2.851.855c.476.136.946.3,1.428.414l1.456.313,2.912.625c1.957.334,3.935.546,5.9.825-1.971-.242-3.957-.414-5.922-.711l-2.931-.569-1.466-.285c-.486-.109-.961-.26-1.441-.389l-2.88-.8c-.955-.278-1.876-.669-2.816-1a57.137,57.137,0,0,1-5.493-2.371,50.074,50.074,0,0,1-9.9-6.721,36.837,36.837,0,0,1-7.742-9.207Z" transform="translate(-112.654 -86.92)"/><path d="M217.393,198.458a35.089,35.089,0,0,0,6.572,11.931,48.3,48.3,0,0,0,10.194,9.243l2.933,1.836c.97.63,2.041,1.078,3.056,1.625a59.346,59.346,0,0,0,6.343,2.789,32.351,32.351,0,0,0,3.287,1.107l3.317,1.026c2.25.537,4.518,1.013,6.779,1.522-2.266-.472-4.544-.91-6.808-1.411l-3.34-.971a32.321,32.321,0,0,1-3.314-1.056,59.483,59.483,0,0,1-6.418-2.693c-1.03-.534-2.116-.968-3.1-1.586l-2.988-1.8a48.83,48.83,0,0,1-10.475-9.187,35.791,35.791,0,0,1-6.936-12.153Z" transform="translate(-113.77 -88.276)"/><path d="M217.136,198.508a84.446,84.446,0,0,0,1.608,10.272,88.454,88.454,0,0,0,2.81,10.036,67.118,67.118,0,0,0,4.239,9.522,45.94,45.94,0,0,0,6.113,8.446,46.028,46.028,0,0,1-6.314-8.331,67.224,67.224,0,0,1-4.473-9.479,88.772,88.772,0,0,1-3.054-10.039,84.779,84.779,0,0,1-1.854-10.352Z" transform="translate(-113.895 -88.253)"/><path d="M216.972,197.9a126.323,126.323,0,0,0,1.514,19.4,60.133,60.133,0,0,0,2.256,9.466c1.051,3.042,2.4,6.13,4.821,8.35-2.479-2.164-3.912-5.242-5.04-8.274a60.5,60.5,0,0,1-2.492-9.462,126.741,126.741,0,0,1-1.986-19.478Z" transform="translate(-113.97 -88.523)"/><path d="M219.274,208.394a30.146,30.146,0,0,0,3.648,6.181c.729.945,1.482,1.876,2.3,2.754.8.9,1.673,1.722,2.531,2.586a20,20,0,0,1-2.87-2.252,21.127,21.127,0,0,1-2.454-2.716,20.082,20.082,0,0,1-1.926-3.117A13.554,13.554,0,0,1,219.274,208.394Z" transform="translate(-112.526 -83.833)"/><path d="M230.675,219.614a34.9,34.9,0,0,0,7.146,3.854c1.258.5,2.531.957,3.835,1.328,1.3.4,2.627.683,3.962,1a23.162,23.162,0,0,1-4.081-.543,24.354,24.354,0,0,1-3.948-1.216,23.434,23.434,0,0,1-3.682-1.877A16.529,16.529,0,0,1,230.675,219.614Z" transform="translate(-107.427 -78.815)"/><path d="M207.641,187.832a9.324,9.324,0,0,1,1.718,2.146,15.075,15.075,0,0,1,1.171,2.369,23.04,23.04,0,0,1,1.314,5.039,35.366,35.366,0,0,1,.346,5.15c.012,1.689.054,3.382.191,5.071a81.671,81.671,0,0,0,1.371,10.077c.342,1.661.716,3.32,1.2,4.948a14.616,14.616,0,0,0,2.007,4.647,14.66,14.66,0,0,1-2.155-4.6c-.531-1.619-.955-3.272-1.35-4.929a82.371,82.371,0,0,1-1.685-10.088c-.191-1.7-.284-3.405-.347-5.116a34.785,34.785,0,0,0-.488-5.009,22.079,22.079,0,0,0-1.4-4.773,11.385,11.385,0,0,0-2.648-3.955Z" transform="translate(-118.068 -93.028)"/><path d="M205.087,187.935a4.868,4.868,0,0,1,1.276,1.205,5.752,5.752,0,0,1,.8,1.453,6.1,6.1,0,0,1,.347,1.569,7.74,7.74,0,0,1-.029,1.566,7.551,7.551,0,0,0-.275-1.508,5.669,5.669,0,0,0-.6-1.357,4.926,4.926,0,0,0-.926-1.1,3.8,3.8,0,0,0-1.123-.713Z" transform="translate(-119.108 -92.981)"/><path d="M209.706,188.275a34.5,34.5,0,0,1,3.346,8.11,33.428,33.428,0,0,1,.857,4.3,40.665,40.665,0,0,1,.243,4.368,67.385,67.385,0,0,0,.849,8.654c.457,2.867,1.029,5.719,1.747,8.534-.767-2.8-1.389-5.645-1.9-8.508a68.019,68.019,0,0,1-1.006-8.669,40.092,40.092,0,0,0-.317-4.327,32.914,32.914,0,0,0-.92-4.226,34.012,34.012,0,0,0-3.421-7.906Z" transform="translate(-117.038 -92.829)"/><path d="M212.138,194.451a4.564,4.564,0,0,1,.909,1.559,13.974,13.974,0,0,1,.514,1.618,29.392,29.392,0,0,1,.595,3.3,61.446,61.446,0,0,1,.384,6.66v-.012c.148,1.517.321,3.03.557,4.535q.174,1.129.408,2.247a14.628,14.628,0,0,0,.609,2.2,14.728,14.728,0,0,1-.67-2.187c-.179-.742-.334-1.491-.472-2.24-.278-1.5-.493-3.014-.683-4.53v-.012a61,61,0,0,0-.563-6.6,28.725,28.725,0,0,0-.673-3.224,13.385,13.385,0,0,0-.534-1.537,4.435,4.435,0,0,0-.763-1.292Z" transform="translate(-115.888 -90.068)"/><g transform="translate(77.132 94.903)"><path d="M199.376,263.715l-.567-1.1c3.9-2.016,4.1-5.534,3.2-10.2-.844-4.379-.443-20.143-.006-23.421.075-.56.213-1.366.391-2.4a137.213,137.213,0,0,0,2.3-24.221c0-12.142-2.226-13.269-2.247-13.279l.276-1.2c.753.123,3.208,1.537,3.208,14.48a138.547,138.547,0,0,1-2.313,24.431c-.175,1.009-.311,1.8-.385,2.349-.418,3.146-.81,18.848-.006,23.023C204.091,256.69,204.227,261.205,199.376,263.715Z" transform="translate(-198.809 -187.9)"/></g><path d="M231.807,237.264c-2.3-1.766-4.488-3.632-6.631-5.562s-4.217-3.931-6.177-6.043a68.166,68.166,0,0,1-5.528-6.631,37.562,37.562,0,0,1-4.278-7.472,37.376,37.376,0,0,0,4.465,7.333,67.666,67.666,0,0,0,5.676,6.449c2,2.048,4.132,3.974,6.3,5.842s4.414,3.663,6.718,5.334Z" transform="translate(-117.034 -82.419)"/><path d="M231.03,234.787q-6-4.68-11.845-9.543c-1.942-1.63-3.873-3.272-5.761-4.964a52.573,52.573,0,0,1-5.37-5.373,52.393,52.393,0,0,0,5.522,5.2c1.936,1.631,3.915,3.211,5.9,4.779q5.978,4.68,12.11,9.162Z" transform="translate(-117.544 -80.92)"/><path d="M303.314,171.849a59.147,59.147,0,0,1-.281,10.9A26.051,26.051,0,0,1,301.8,188.1a10.615,10.615,0,0,1-.527,1.285,8.027,8.027,0,0,1-.664,1.23c-.479.815-1.015,1.5-1.489,2.282-3.861,6.122-7.44,12.447-10.98,18.777-.467.8-.844,1.564-1.384,2.386-.518.763-1.062,1.5-1.621,2.221q-1.674,2.173-3.531,4.192a64.533,64.533,0,0,1-8.029,7.436,58.34,58.34,0,0,1-9.281,5.78,49.109,49.109,0,0,1-10.308,3.525,48.848,48.848,0,0,0,10.1-3.932,58.3,58.3,0,0,0,9.043-5.933,71.821,71.821,0,0,0,7.845-7.443q1.815-2.008,3.451-4.164c.544-.716,1.075-1.446,1.572-2.19.456-.695.881-1.563,1.328-2.333,3.615-6.3,7.178-12.634,11.2-18.715.483-.76,1.082-1.5,1.538-2.242a7.458,7.458,0,0,0,.653-1.148,10.2,10.2,0,0,0,.534-1.221,26.112,26.112,0,0,0,1.337-5.211A59,59,0,0,0,303.314,171.849Z" transform="translate(-97.004 -100.175)"/><g transform="translate(198.837 96.684)"><path d="M285.069,194.989l-.615-.068a7.98,7.98,0,0,0-1.547-5.4l.48-.389A8.5,8.5,0,0,1,285.069,194.989Z" transform="translate(-282.907 -189.131)"/></g><path d="M304.862,190.943a11.374,11.374,0,0,0-4.5-.22,16.4,16.4,0,0,0-4.447,1.307,21.488,21.488,0,0,0-4.014,2.418c-.63.47-1.21,1-1.819,1.505l-1.686,1.66L290,195.869c.585-.531,1.142-1.1,1.754-1.6a21.921,21.921,0,0,1,3.958-2.656,16.918,16.918,0,0,1,4.538-1.575,12.036,12.036,0,0,1,4.9.022Z" transform="translate(-81.618 -92.15)"/><path d="M300.052,190.455a28.046,28.046,0,0,0-4.436,2.849,15.249,15.249,0,0,0-3.592,3.871,15.418,15.418,0,0,1,3.392-4.109,28.636,28.636,0,0,1,4.347-3.159Z" transform="translate(-79.993 -92.099)"/><path d="M283.536,206.972a16.942,16.942,0,0,1,1.776-3.344,20.937,20.937,0,0,1,2.337-2.912,21.552,21.552,0,0,1,2.781-2.46,24.28,24.28,0,0,1,3.123-1.972,24.1,24.1,0,0,0-2.978,2.155,21.25,21.25,0,0,0-2.58,2.586,20.484,20.484,0,0,0-2.093,2.971,16.274,16.274,0,0,0-1.48,3.252Z" transform="translate(-83.789 -89.248)"/><path d="M303.98,193.841a7.156,7.156,0,0,0-3.981.294,10.779,10.779,0,0,0-3.567,2.19,18.485,18.485,0,0,0-2.826,3.2c-.383.6-.792,1.2-1.158,1.818l-1.029,1.9.928-1.957c.333-.64.711-1.258,1.065-1.889a18.824,18.824,0,0,1,2.7-3.415,11.313,11.313,0,0,1,3.632-2.5,7.859,7.859,0,0,1,4.5-.534Z" transform="translate(-80.264 -90.797)"/><path d="M275.14,215.667a73.688,73.688,0,0,1-.339,8.249,21.857,21.857,0,0,1-.764,4.091c-.456,1.317-.938,2.567-1.31,3.883a27.428,27.428,0,0,0-1.221,8.035,15.159,15.159,0,0,0,2.125,7.794,15.26,15.26,0,0,1-2.356-7.787,27.813,27.813,0,0,1,1.006-8.166c.334-1.329.8-2.65,1.2-3.929a21.286,21.286,0,0,0,.625-3.986,72.6,72.6,0,0,0,.1-8.152Z" transform="translate(-89.281 -80.58)"/><g transform="translate(190.11 137.082)"><path d="M300.906,260.91c-.166-.026-16.724-2.961-22.647-21.766-2.8-13.045-.5-21.735-.4-22.1l1.194.326c-.025.087-2.313,8.786.4,21.457,5.682,18.032,21.494,20.835,21.653,20.861Z" transform="translate(-276.877 -217.046)"/></g><path d="M269.166,212.769a52.933,52.933,0,0,1-6.867,5.878,30.6,30.6,0,0,1-7.941,4.214,30.435,30.435,0,0,0,7.757-4.463,52.485,52.485,0,0,0,6.593-6.048Z" transform="translate(-96.837 -82.063)"/><path d="M288.751,217.442a43.826,43.826,0,0,0-.22,6.339,34.9,34.9,0,0,0,.767,6.31A19.374,19.374,0,0,0,291.573,236a42.25,42.25,0,0,1,3.152,5.589,42.086,42.086,0,0,0-3.346-5.462,19.7,19.7,0,0,1-2.531-5.925,35.47,35.47,0,0,1-1.012-6.381,44.4,44.4,0,0,1-.007-6.479Z" transform="translate(-81.921 -79.833)"/><path d="M297.6,219.826a14.162,14.162,0,0,0-.847,2.3,5.107,5.107,0,0,0-.178,2.44,5.331,5.331,0,0,1-.279-2.518,15.007,15.007,0,0,1,.434-2.541Z" transform="translate(-78.098 -78.865)"/><path d="M295.768,221.3c.106,1.4.081,2.767.081,4.136l0,2.046a11.639,11.639,0,0,0,.162,2.045,5.306,5.306,0,0,1-.635-2,13.177,13.177,0,0,1-.14-2.091A16.48,16.48,0,0,1,295.768,221.3Z" transform="translate(-78.559 -78.059)"/><path d="M309.267,256.138a40.862,40.862,0,0,1-16.977-11.845,39.184,39.184,0,0,1-7.456-13.547,19.528,19.528,0,0,1-.67-2.5l-.589-2.515.664,2.495a18.907,18.907,0,0,0,.742,2.467,38.831,38.831,0,0,0,7.773,13.188,38.791,38.791,0,0,0,7.753,6.635,38.16,38.16,0,0,0,9.11,4.431Z" transform="translate(-83.772 -76.079)"/><path d="M298.552,250.65a7.061,7.061,0,0,0-.8-1.632,15.635,15.635,0,0,0-1.178-1.576,24.767,24.767,0,0,0-2.831-2.829c-1.011-.886-2.088-1.7-3.19-2.486s-2.247-1.507-3.4-2.219c1.2.622,2.4,1.265,3.572,1.959s2.313,1.443,3.408,2.262a25.6,25.6,0,0,1,3.13,2.689,10.9,10.9,0,0,1,2.491,3.522Z" transform="translate(-82.173 -69.74)"/><path d="M306.989,250.032a36.94,36.94,0,0,1-3.684-2.344A42.849,42.849,0,0,1,299.916,245a36.79,36.79,0,0,1-3.084-3.017,34.487,34.487,0,0,1-2.7-3.344,34.347,34.347,0,0,0,2.92,3.127,36.653,36.653,0,0,0,3.255,2.755,41.5,41.5,0,0,0,3.511,2.4,35.955,35.955,0,0,0,3.706,2Z" transform="translate(-79.051 -70.31)"/><path d="M313.075,256.279a39.391,39.391,0,0,1-6.353-5.491,49.826,49.826,0,0,1-9.207-13.583,53.014,53.014,0,0,1-2.819-7.654,52.645,52.645,0,0,0,3.372,7.375,47.375,47.375,0,0,0,4.47,6.7,46.78,46.78,0,0,0,5.478,5.834,37.622,37.622,0,0,0,6.307,4.683Z" transform="translate(-78.799 -74.372)"/><path d="M303.906,221.924a16.2,16.2,0,0,0-.567,2.7,27.866,27.866,0,0,0-.217,2.806,35,35,0,0,0,.341,5.658,35.2,35.2,0,0,1-.8-5.651,28.044,28.044,0,0,1-.012-2.877,16.6,16.6,0,0,1,.373-2.907Z" transform="translate(-75.257 -77.905)"/><path d="M304.776,221.979a16.055,16.055,0,0,0-.41,2.333,13.618,13.618,0,0,0-.048,2.407,13.706,13.706,0,0,1-.415-2.41,16.915,16.915,0,0,1-.043-2.486Z" transform="translate(-74.713 -77.827)"/><g transform="translate(204.178 88.153)"><path d="M288.711,192.29l-.617-.035c.352-6.372-.582-7.9-1-8.265a.419.419,0,0,0-.321-.135l-.175-.592a.937.937,0,0,1,.839.208C288.543,184.326,288.983,187.375,288.711,192.29Z" transform="translate(-286.598 -183.236)"/></g><path d="M301.948,258.933a48.684,48.684,0,0,1-11.172-1.967,15.326,15.326,0,0,1-5.1-2.618,28.928,28.928,0,0,1-3.9-4.13,57.15,57.15,0,0,1-6.109-9.465,7.212,7.212,0,0,1-.522-2.787l-.172-2.8-.256-5.611.41,5.6.25,2.794a6.925,6.925,0,0,0,.57,2.673,56.633,56.633,0,0,0,6.308,9.207,28.31,28.31,0,0,0,3.9,3.92,14.475,14.475,0,0,0,4.9,2.333A47.66,47.66,0,0,0,302,257.7Z" transform="translate(-87.734 -74.372)"/><path d="M296.714,249.811a45.851,45.851,0,0,1-4.76,3.986,6.311,6.311,0,0,1-1.437.793,3.89,3.89,0,0,1-1.664.116,12.025,12.025,0,0,1-3.03-.826l-.014-.006-.006,0a33.875,33.875,0,0,1-3.077-1.952,17.281,17.281,0,0,1-1.424-1.135,4.6,4.6,0,0,1-1.138-1.407,4.544,4.544,0,0,0,1.213,1.318,17.383,17.383,0,0,0,1.476,1.033,34.152,34.152,0,0,0,3.159,1.734l-.022-.01a11.426,11.426,0,0,0,2.915.6,3.2,3.2,0,0,0,1.362-.171,5.816,5.816,0,0,0,1.187-.77,45.1,45.1,0,0,0,4.382-4.171Z" transform="translate(-85.297 -65.701)"/><path d="M294.648,257.548c.14-.389-.149-.764-.353-1.077a7.461,7.461,0,0,0-.78-.89,19.188,19.188,0,0,0-1.792-1.564c-1.246-.984-2.577-1.862-3.884-2.78s-2.617-1.838-3.893-2.819a20.339,20.339,0,0,1-3.595-3.331,5.761,5.761,0,0,1-.695-1.113l-.223-.67-.133-.569-.6-2.3-1.3-4.6-2.653-9.2.734.407c-5,1.353-9.977,2.78-15.038,3.931a36.338,36.338,0,0,1-3.836.744l-3.865.447c-2.58.269-5.153.567-7.732.8,2.547-.48,5.1-.9,7.645-1.342l3.825-.624a35.293,35.293,0,0,0,3.75-.88l7.466-2.091,7.46-2.132.563-.161.172.566c.931,3.058,1.779,6.137,2.625,9.22l1.242,4.634.582,2.339.132.6.151.467a5.818,5.818,0,0,0,.55.926,19.625,19.625,0,0,0,3.3,3.288c1.217,1.013,2.485,1.978,3.754,2.948s2.531,1.958,3.732,3.028a19.332,19.332,0,0,1,1.71,1.7,6.852,6.852,0,0,1,.718.972C294.561,256.751,294.824,257.163,294.648,257.548Z" transform="translate(-101.018 -76.079)"/><path d="M288.51,252.345l-.2,12.787-1.037-12.747Z" transform="translate(-82.118 -64.179)"/><path d="M208.9,243.71c.038-2.059.016-4.14-.12-6.2a20.447,20.447,0,0,0-.394-3.025,25.814,25.814,0,0,1-.453-3.14c-.4-4.162-.6-8.321-.787-12.483.392,4.145.8,8.3,1.4,12.405a24.923,24.923,0,0,0,.585,3.016,21.012,21.012,0,0,1,.57,3.14c.243,2.094.368,4.178.434,6.282Z" transform="translate(-117.95 -79.15)"/><path d="M208.733,235.517c.237.059.592-.146.754-.711a5.476,5.476,0,0,0,.153-1.851l-.346-4.114-.708-8.246-.072-.839.66.509a92.628,92.628,0,0,0,9.923,6.663,66.8,66.8,0,0,0,10.808,5.148,66.841,66.841,0,0,1-10.987-4.829,93.007,93.007,0,0,1-10.191-6.4l.588-.33.961,8.239.473,4.129a6.5,6.5,0,0,1-.137,2.259,2.452,2.452,0,0,1-.682,1.171,1.711,1.711,0,0,1-1.521.4Z" transform="translate(-117.384 -78.752)"/><path d="M210.138,236.871a32.688,32.688,0,0,1-.187-5.258,11.843,11.843,0,0,1,.412-2.677c.074-.226.161-.452.252-.677a6.41,6.41,0,0,1,.373-.641c.246-.359.511-.721.8-1.074a4.6,4.6,0,0,1,1.077-.978,2.9,2.9,0,0,1,1.492-.447,5.867,5.867,0,0,1,2.7.793,33.336,33.336,0,0,0,4.715,1.868,120.935,120.935,0,0,0,20.064,4.34c6.8.955,13.65,1.528,20.511,1.883,6.862.382,13.74.392,20.615.368l-.026,0a5.129,5.129,0,0,1,4,.4,2.89,2.89,0,0,1,1.13,1.689,10.716,10.716,0,0,1,.232,2.029,10.414,10.414,0,0,1-.117,2.035c-.08.65-.437,1.379.071,1.926l2.132,3.463-2.172-3.434a1.2,1.2,0,0,1-.278-.965l.171-1a10.241,10.241,0,0,0,.091-2.019,10.479,10.479,0,0,0-.252-2,2.754,2.754,0,0,0-1.093-1.6,4.969,4.969,0,0,0-3.861-.33l-.016,0h-.012c-6.877.111-13.76.187-20.638-.11-6.877-.269-13.751-.757-20.586-1.631a121.83,121.83,0,0,1-20.269-4.122,34.387,34.387,0,0,1-4.887-1.871,4.931,4.931,0,0,0-2.2-.647,2.345,2.345,0,0,0-1.748,1.059c-.252.311-.492.647-.728,1-.132.181-.174.317-.271.473l-.19.534a10.779,10.779,0,0,0-.334,2.414,31.758,31.758,0,0,0,.242,5.039Z" transform="translate(-116.711 -76.354)"/><path d="M268.2,242.379l5.747,4.023a57.322,57.322,0,0,0,5.928,3.7,16.344,16.344,0,0,1-3.265-1.35,29.223,29.223,0,0,1-3.014-1.844A36.528,36.528,0,0,1,268.2,242.379Z" transform="translate(-90.649 -68.635)"/><path d="M264.851,242.163a161.284,161.284,0,0,0,11.359,11.826,161.785,161.785,0,0,1-12.043-11.2Z" transform="translate(-92.451 -68.732)"/><path d="M295.522,261.63a64.853,64.853,0,0,1-2.939,7,34.014,34.014,0,0,1-3.978,6.418,33.79,33.79,0,0,0,3.412-6.669,64.429,64.429,0,0,0,2.318-7.1Z" transform="translate(-81.522 -60.182)"/><path d="M199.841,191.22a.68.68,0,0,1,.4,0,.6.6,0,0,1,.213.1.787.787,0,0,1,.223.219,1.129,1.129,0,0,1,.172.336,2.53,2.53,0,0,1,.123.52,6.34,6.34,0,0,1,.059.9c.01.582-.03,1.14-.074,1.7-.1,1.113-.245,2.208-.415,3.3-.341,2.178-.751,4.337-1.2,6.486-.9,4.3-1.949,8.541-2.6,12.863a60.8,60.8,0,0,0-.761,13.048,103,103,0,0,0,1.942,12.973,103.285,103.285,0,0,1-2.252-12.951,61.371,61.371,0,0,1,.459-13.156c.553-4.362,1.508-8.664,2.3-12.954.4-2.149.757-4.3,1.043-6.46.143-1.078.263-2.159.329-3.23.03-.533.055-1.069.035-1.583a5.434,5.434,0,0,0-.064-.735,1.437,1.437,0,0,0-.068-.278c-.013-.052-.023-.051-.009-.03,0-.016.028.036.084.072a1.092,1.092,0,0,0,.123.052.507.507,0,0,0,.305-.01Z" transform="translate(-123.158 -91.526)"/><path d="M200.785,188.52a8.407,8.407,0,0,1,2.5,4.473,18.523,18.523,0,0,1,.476,4.949,43.389,43.389,0,0,1-1.538,9.7c-.755,3.171-1.567,6.329-2.389,9.48a40.948,40.948,0,0,0-1.732,9.586,41.046,41.046,0,0,1,1.507-9.641c.748-3.172,1.483-6.344,2.162-9.528a42.882,42.882,0,0,0,1.3-9.6,17.9,17.9,0,0,0-.566-4.738,10.954,10.954,0,0,0-.861-2.178,5.494,5.494,0,0,0-1.362-1.725Z" transform="translate(-121.996 -92.72)"/><path d="M194.1,193.385a9.764,9.764,0,0,1,1.156,3.58,21.208,21.208,0,0,1,.221,3.68,40.084,40.084,0,0,1-.917,7.263,57.8,57.8,0,0,0-1.006,7.206,27.47,27.47,0,0,0,.3,7.259,27.547,27.547,0,0,1-.452-7.268,57.939,57.939,0,0,1,.857-7.255,39.889,39.889,0,0,0,.758-7.21,20.9,20.9,0,0,0-.292-3.588,9.421,9.421,0,0,0-1.12-3.3Z" transform="translate(-124.119 -90.544)"/><path d="M200.783,244.838l.5-4.63.106.343c-1.738-2.326-3.386-4.7-4.925-7.148-.77-1.224-1.508-2.469-2.182-3.748a24,24,0,0,1-1.738-3.964,23.731,23.731,0,0,0,1.951,3.844c.739,1.232,1.543,2.425,2.375,3.6,1.661,2.343,3.44,4.615,5.279,6.808l.116.139-.01.206-.236,4.651Z" transform="translate(-124.48 -76.097)"/><path d="M201.662,238.506c-1.653-.812-3.276-1.658-4.878-2.556a34.044,34.044,0,0,1-4.616-2.98,33.729,33.729,0,0,0,4.826,2.566c1.66.754,3.347,1.459,5.038,2.119Z" transform="translate(-124.647 -72.842)"/><path d="M204.917,238.087a26.839,26.839,0,0,1-5.321.221,30.18,30.18,0,0,1-5.236-.7,28.511,28.511,0,0,1-5.022-1.573,30.039,30.039,0,0,1-4.651-2.42,29.84,29.84,0,0,0,4.735,2.2,28.087,28.087,0,0,0,5.027,1.334,29.625,29.625,0,0,0,5.165.465,26.305,26.305,0,0,0,5.117-.436Z" transform="translate(-127.992 -72.556)"/><path d="M199.72,238.272c-2.107-.569-4.184-1.208-6.232-1.948a31.2,31.2,0,0,1-5.916-2.712,31.034,31.034,0,0,0,6.014,2.418c2.067.637,4.169,1.176,6.275,1.64Z" transform="translate(-126.702 -72.556)"/><g transform="translate(37.032 136.114)"><path d="M194.087,250.212c-.33-.185-8.162-4.585-12.962-9.384a4.419,4.419,0,0,0-2.015-1.055,3.5,3.5,0,0,1-.864-.311c-1.113-.618-10-12.819-6.21-23.085l1.161.43c-3.563,9.638,4.873,20.946,5.692,21.6a2.79,2.79,0,0,0,.534.169,5.674,5.674,0,0,1,2.54,1.343c4.716,4.713,12.648,9.166,12.728,9.211Z" transform="translate(-171.1 -216.377)"/></g><path d="M169.406,218.573a50.684,50.684,0,0,0-4.609,7.848,23.8,23.8,0,0,0-1.56,4.278,8.755,8.755,0,0,0-.155,4.515,8.856,8.856,0,0,1-.071-4.564,24.217,24.217,0,0,1,1.359-4.411,51.347,51.347,0,0,1,4.274-8.2Z" transform="translate(-137.804 -79.518)"/><path d="M169.515,218.231a24.314,24.314,0,0,0-1.745,3.1,24.953,24.953,0,0,0-1.3,3.343,18.668,18.668,0,0,0-.69,3.524,13.983,13.983,0,0,0,.168,3.6,14.147,14.147,0,0,1-.4-3.614,19,19,0,0,1,.473-3.63,25.4,25.4,0,0,1,1.106-3.5,24.558,24.558,0,0,1,1.609-3.333Z" transform="translate(-136.551 -79.661)"/><path d="M172.914,244.646a19.216,19.216,0,0,1-3.291-2.495,27.589,27.589,0,0,1-2.813-3.027,18.154,18.154,0,0,1-3.69-7.363c.754,1.165,1.472,2.292,2.246,3.389.792,1.083,1.573,2.165,2.415,3.208C169.437,240.468,171.192,242.492,172.914,244.646Z" transform="translate(-137.637 -73.384)"/><path d="M166.044,240.018a8.971,8.971,0,0,1-1.349-2.8,12.333,12.333,0,0,1-.485-2.988,14.469,14.469,0,0,1,.245-2.984,18.216,18.216,0,0,1,.8-2.857,18.054,18.054,0,0,0-.572,2.891,14.031,14.031,0,0,0-.012,2.916,11.732,11.732,0,0,0,.68,2.8,8.278,8.278,0,0,0,1.386,2.412Z" transform="translate(-137.15 -74.892)"/><path d="M176.395,245.8a17.334,17.334,0,0,1-2.362-1.88,19.477,19.477,0,0,1-2.007-2.185,17.709,17.709,0,0,1-2.851-5.1,17.437,17.437,0,0,0,3.315,4.7,18.62,18.62,0,0,0,2.142,1.884,16.317,16.317,0,0,0,2.357,1.5Z" transform="translate(-134.929 -71.207)"/><g transform="translate(19.788 140.836)"><path d="M162.813,245.673c-4.534-6.683-4.347-15.975-2.014-18.738,1.857-2.2,3.476-7.245,3.492-7.3l1.179.373c-.069.217-1.711,5.333-3.727,7.719-1.823,2.161-2.192,10.928,2.093,17.246Z" transform="translate(-159.185 -219.64)"/></g><g transform="translate(6.686 146.379)"><path d="M151.714,245.484c-.012-.058-1.124-5.766-1.525-7.168-.511-1.789,2.438-7.258,4.782-8.867,1.644-1.129,3.262-4.7,3.747-5.98l1.156.437c-.077.2-1.9,4.986-4.2,6.563-2.081,1.428-4.6,6.43-4.292,7.508.415,1.452,1.505,7.033,1.55,7.269Z" transform="translate(-150.131 -223.47)"/></g><g transform="translate(2.622 166.964)"><rect width="0.928" height="5.684" transform="translate(0 0.715) rotate(-50.413)"/></g><g transform="translate(9.803 169.956)"><path d="M154.773,242.164a12.441,12.441,0,0,1-2.488-.259l.2-.906c.046.01,4.716,1.027,5.883-1.237l.825.424C158.369,241.8,156.4,242.164,154.773,242.164Z" transform="translate(-152.285 -239.762)"/></g><g transform="translate(7.832 154.126)"><path d="M154.522,242.91c-1.088,0-2.24-.768-3.6-2.4l.949-.793c1.143,1.369,2.074,2.026,2.77,1.945.974-.11,1.793-1.713,2.661-3.412l.31-.6c1.748-3.376,5.247-8.606,5.4-8.828l1.027.689c-.036.054-3.609,5.394-5.327,8.709l-.305.6c-1.023,2-1.99,3.9-3.625,4.078A2.164,2.164,0,0,1,154.522,242.91Z" transform="translate(-150.923 -228.823)"/></g><g transform="translate(8.127 157.312)"><path d="M158.81,235.83c-.276-.038-6.771-.925-7.683-4.657l.6-.148c.812,3.323,7.1,4.182,7.162,4.19Z" transform="translate(-151.127 -231.025)"/></g><g transform="translate(17.716 165.574)"><path d="M160.688,238.8a6.9,6.9,0,0,1-2.935-.7l.415-.829c.137.068,3.376,1.648,5-.533l.744.554A3.828,3.828,0,0,1,160.688,238.8Z" transform="translate(-157.753 -236.734)"/></g><path d="M161.484,232.873a14.563,14.563,0,0,1-.355-2.906,8.6,8.6,0,0,1,.355-2.909c-.053.486-.056.97-.064,1.453s0,.965.019,1.449C161.442,230.928,161.5,231.893,161.484,232.873Z" transform="translate(-138.527 -75.486)"/><path d="M185.907,233.906a41.049,41.049,0,0,1-2.6-3.55c-.821-1.219-1.56-2.491-2.26-3.784a30.167,30.167,0,0,1-1.818-4.029,12.357,12.357,0,0,1-.9-4.317,17.282,17.282,0,0,0,1.339,4.142c.59,1.326,1.224,2.634,1.92,3.913C182.95,228.856,184.442,231.363,185.907,233.906Z" transform="translate(-130.836 -79.436)"/><path d="M186.049,232a11.892,11.892,0,0,1-1.86-2.576,19.528,19.528,0,0,1-1.313-2.9,22.112,22.112,0,0,1-.844-3.067,20.406,20.406,0,0,1-.391-3.148c.563,2.039,1.114,4.046,1.816,6.007.349.98.738,1.944,1.153,2.9A25.916,25.916,0,0,0,186.049,232Z" transform="translate(-129.354 -78.505)"/><path d="M187.227,232.452a20.1,20.1,0,0,1-1.9-3.324,23.664,23.664,0,0,1-1.331-3.606,19.2,19.2,0,0,1-.641-3.8,13.435,13.435,0,0,1,.318-3.823,23.1,23.1,0,0,0,.156,3.779,30.043,30.043,0,0,0,.763,3.682A47.9,47.9,0,0,0,187.227,232.452Z" transform="translate(-128.599 -79.583)"/><path d="M189.645,233.057a30.878,30.878,0,0,1-1.9-4.292,44.244,44.244,0,0,1-1.337-4.512,37.377,37.377,0,0,1-.753-4.648,26.122,26.122,0,0,1-.028-4.7c.133,1.56.246,3.109.5,4.641s.5,3.062.883,4.566c.326,1.517.747,3.012,1.185,4.5S189.122,231.584,189.645,233.057Z" transform="translate(-127.614 -80.92)"/><path d="M183.93,206.244a16.78,16.78,0,0,0-.708,2.783,21.14,21.14,0,0,0-.3,2.9,21.805,21.805,0,0,0,.572,5.839,22.087,22.087,0,0,1-1.036-5.838,21.564,21.564,0,0,1,.078-2.994,17.31,17.31,0,0,1,.52-2.994Z" transform="translate(-129 -84.929)"/><path d="M175.212,216.067a9.176,9.176,0,0,0-.473,2.936,17.208,17.208,0,0,0,.253,3.132,24.968,24.968,0,0,0,.729,3.1c.314,1.02.686,2.025,1.09,3.019-.5-.951-.967-1.917-1.381-2.915a25.54,25.54,0,0,1-1.043-3.075,17.851,17.851,0,0,1-.575-3.234,9.916,9.916,0,0,1,.249-3.42Z" transform="translate(-132.873 -80.605)"/><path d="M187.8,202.317c-.1,1.463-.168,2.938-.2,4.41-.01.735-.01,1.472.016,2.207a10.4,10.4,0,0,0,.265,2.187,10.419,10.419,0,0,1-.495-2.165c-.1-.735-.182-1.473-.25-2.213-.127-1.479-.216-2.957-.268-4.446Z" transform="translate(-127.015 -86.559)"/><path d="M189.193,199.28l-.464,12.416-.464-12.416Z" transform="translate(-126.392 -87.908)"/><path d="M171.963,217.151l-2.166,8.612a26.542,26.542,0,0,0-.821,4.34,13.413,13.413,0,0,0,.394,4.386,13.56,13.56,0,0,1-.625-4.4,26.874,26.874,0,0,1,.6-4.42l1.716-8.729Z" transform="translate(-135.124 -80.011)"/><path d="M170.655,231.076c.826,1.3,1.575,2.6,2.418,3.841a19.843,19.843,0,0,0,1.324,1.8,7.967,7.967,0,0,0,1.634,1.534,4.847,4.847,0,0,1-1.978-1.206,9.69,9.69,0,0,1-1.493-1.783,13.909,13.909,0,0,1-1.122-2.019A12.216,12.216,0,0,1,170.655,231.076Z" transform="translate(-134.267 -73.69)"/><path d="M282.123,285.689c-.166.042-.007,0,.017-.036a1.661,1.661,0,0,0,.185-.158,3.521,3.521,0,0,0,.369-.454,7.888,7.888,0,0,0,.63-1.122,18.544,18.544,0,0,0,.936-2.519l.757-2.657q.419-1.333.916-2.63a84.913,84.913,0,0,1,4.713-10.012,84.865,84.865,0,0,0-4.13,10.216c-.281.871-.53,1.751-.755,2.632l-.606,2.7a19.681,19.681,0,0,1-.838,2.706,9,9,0,0,1-.651,1.321,4.438,4.438,0,0,1-.466.641,2.645,2.645,0,0,1-.323.308,1.284,1.284,0,0,1-.585.291Z" transform="translate(-84.454 -58.027)"/><g transform="translate(202.363 210.609)"><path d="M286.014,285.195a.907.907,0,0,1-.67-.261l.685-.625c-.043-.042,1.23.245,4.5-6.017,4.143-7.933,5.616-10.341,5.677-10.438l.79.485c-.014.025-1.524,2.492-5.645,10.385-2.152,4.12-3.894,6.294-5.178,6.462A1.547,1.547,0,0,1,286.014,285.195Z" transform="translate(-285.344 -267.853)"/></g><path d="M293.492,272.721a75.239,75.239,0,0,1-1.74,9.9,10.212,10.212,0,0,1-.9,2.421c-.407.754-.878,1.46-1.3,2.162a18.771,18.771,0,0,0-1.916,4.5,7.363,7.363,0,0,1-1.119,2.376,15.087,15.087,0,0,1-1.683,1.951,33.4,33.4,0,0,1-3.852,3.284,68.22,68.22,0,0,1-8.492,5.368c2.753-1.9,5.472-3.839,8.054-5.931a45.223,45.223,0,0,0,3.687-3.311,14.053,14.053,0,0,0,1.556-1.863,5.081,5.081,0,0,0,.569-1.013l.216-.525.179-.609a19.687,19.687,0,0,1,2.082-4.663c.452-.722.92-1.4,1.318-2.11a11.92,11.92,0,0,0,.922-2.233c.495-1.577.894-3.2,1.278-4.821C292.759,275.983,293.11,274.35,293.492,272.721Z" transform="translate(-88.73 -55.067)"/><g transform="translate(87.631 210.317)"><path d="M263.326,320.583a90.017,90.017,0,0,1-17.466-1.792c-9.265-3.323-18.41-9.371-22.844-15.072-4.028-5.178-5.292-5.876-5.344-5.9l-.156-.1-11.451-10.674.842-.906,11.4,10.621c.454.265,1.955,1.405,5.692,6.21,4.3,5.531,13.221,11.415,22.2,14.643,19.563,3.855,36.79,1.336,51.113-7.515.52-.321.912-.561,1.178-.7,1.3-.677,4.418-2.768,7.716-4.984,3.7-2.485,7.522-5.054,9.693-6.248,10.023-5.307,12.058-11.239,13.035-14.088a7.7,7.7,0,0,1,.547-1.357c.732-1.22,4.113-11.285,5.353-15.061l1.175.386c-.46,1.4-4.531,13.751-5.467,15.31a7.865,7.865,0,0,0-.437,1.123c-.948,2.767-3.171,9.246-13.619,14.777-2.114,1.164-5.913,3.716-9.589,6.184-3.328,2.234-6.472,4.347-7.838,5.056-.248.127-.612.353-1.1.653A64.657,64.657,0,0,1,263.326,320.583Z" transform="translate(-206.064 -267.651)"/></g><path d="M206.931,287.824c.873,1.069,1.758,2.122,2.7,3.127.915,1.022,1.86,2.017,2.852,2.957a35.55,35.55,0,0,0,6.376,5.062c2.326,1.352,4.868,2.518,7.3,3.774,2.457,1.242,4.922,2.466,7.373,3.739-2.6-.919-5.152-1.986-7.679-3.1-1.271-.537-2.507-1.151-3.755-1.738s-2.482-1.187-3.719-1.887a32.469,32.469,0,0,1-6.4-5.357A40.785,40.785,0,0,1,206.931,287.824Z" transform="translate(-118.045 -48.313)"/><path d="M206.931,283.478c.986,1.754,1.993,3.479,3.052,5.169s2.164,3.346,3.331,4.955c1.139,1.631,2.4,3.166,3.671,4.695.647.755,1.307,1.5,2.013,2.206.653.763,1.424,1.4,2.117,2.133a33.529,33.529,0,0,1-8.554-8.492,45.462,45.462,0,0,1-3.194-5.14A36.832,36.832,0,0,1,206.931,283.478Z" transform="translate(-118.045 -50.257)"/><path d="M204.45,221.178c.475,4.14.708,8.3.848,12.473a109.123,109.123,0,0,1-.373,12.527l0-.052a5.263,5.263,0,0,1-.428,2.049,7.776,7.776,0,0,0-.466,1.747,23.439,23.439,0,0,0,.059,3.742c.175,2.553.418,5.111.68,7.663.19,2.576.546,5.082.957,7.616s.858,5.051,1.373,7.561c1.02,5.026,2.239,10.013,3.559,14.974,1.287,4.971,2.737,9.9,4.227,14.818l-.016-.039c.858,1.826,1.747,3.646,2.67,5.443s1.873,3.586,2.938,5.307c-1.175-1.65-2.217-3.394-3.221-5.152s-1.977-3.538-2.922-5.334l-.007-.014-.009-.025c-1.644-4.878-3.223-9.781-4.654-14.731-1.388-4.961-2.644-9.962-3.719-15.006a110.563,110.563,0,0,1-2.324-15.3c-.239-2.566-.46-5.13-.614-7.709a23.912,23.912,0,0,1-.016-3.96,8,8,0,0,1,.566-1.959,4.292,4.292,0,0,0,.412-1.687v-.032l0-.022a109.937,109.937,0,0,0,.715-12.417C204.756,229.5,204.644,225.339,204.45,221.178Z" transform="translate(-119.842 -78.116)"/><path d="M206.936,270.969c.412,1.566.893,3.135,1.45,4.664.278.768.583,1.524.928,2.263a10.036,10.036,0,0,0,1.245,2.1,10.008,10.008,0,0,1-1.449-1.994c-.418-.712-.8-1.446-1.151-2.191-.711-1.493-1.339-3.013-1.91-4.573Z" transform="translate(-118.44 -55.85)"/><path d="M211.792,280.532a116.672,116.672,0,0,0,12.457,12.273q1.682,1.4,3.473,2.638c1.206.8,2.451,1.562,3.735,2.255a66.268,66.268,0,0,0,7.925,3.7,38.428,38.428,0,0,0,8.369,2.417c2.9.177,5.844.161,8.768.19,5.857.026,11.715,0,17.572-.051-5.857.124-11.713.232-17.572.284-2.932.009-5.852.065-8.8-.077a38.747,38.747,0,0,1-8.5-2.329,66.571,66.571,0,0,1-8.035-3.624c-1.3-.682-2.569-1.431-3.815-2.234-1.221-.829-2.411-1.7-3.556-2.627a117.657,117.657,0,0,1-12.716-12.2Z" transform="translate(-116.184 -51.574)"/><path d="M212.338,281.4a79.64,79.64,0,0,0,11.76,8.111,89.023,89.023,0,0,0,12.945,6.122c2.213.912,4.517,1.564,6.787,2.308,2.32.576,4.612,1.282,6.975,1.669a82.061,82.061,0,0,0,14.253,1.553,82.107,82.107,0,0,1-14.282-1.4c-2.373-.36-4.676-1.043-7.009-1.6-2.285-.721-4.6-1.35-6.834-2.242a89.183,89.183,0,0,1-13.064-6.007,79.957,79.957,0,0,1-11.944-8.054Z" transform="translate(-115.811 -51.187)"/><path d="M279.935,286.816a42.5,42.5,0,0,1-4.781,3.965,46.236,46.236,0,0,1-5.252,3.258,37.051,37.051,0,0,1-5.658,2.449,32.3,32.3,0,0,1-5.986,1.4,32.212,32.212,0,0,0,5.907-1.621,36.549,36.549,0,0,0,5.511-2.637,45.577,45.577,0,0,0,5.061-3.408,41.754,41.754,0,0,0,4.524-4.045Z" transform="translate(-95.093 -49.049)"/><path d="M286.215,286.069q-3.378,2.6-6.793,5.14c-2.284,1.674-4.57,3.4-7,4.865a17.856,17.856,0,0,0-3.23,2.659,17.829,17.829,0,0,1-3.136,2.912,42.321,42.321,0,0,1-7.795,3.425,42.2,42.2,0,0,0,7.625-3.685,17.575,17.575,0,0,0,2.968-2.971,18.341,18.341,0,0,1,3.221-2.853c2.372-1.55,4.559-3.33,6.783-5.088s4.407-3.564,6.585-5.37Z" transform="translate(-95.093 -49.53)"/><path d="M298.836,268.585a4.126,4.126,0,0,1,.2,1.193,8.8,8.8,0,0,1-.013,1.071,16.692,16.692,0,0,1-.265,2.067,34.623,34.623,0,0,1-1.032,3.964A69.145,69.145,0,0,1,294.7,284.4a68.91,68.91,0,0,0,2.43-7.693,33.617,33.617,0,0,0,.709-3.929,15.964,15.964,0,0,0,.1-1.958,7.814,7.814,0,0,0-.059-.948,3.538,3.538,0,0,0-.171-.79Z" transform="translate(-78.799 -56.916)"/><path d="M291.813,283.627q-1.8,4.263-3.727,8.462c-.648,1.4-1.312,2.789-2,4.165a35.839,35.839,0,0,1-2.285,4.013,35.687,35.687,0,0,0,2.146-4.081c.644-1.4,1.26-2.806,1.861-4.223q1.789-4.252,3.434-8.566Z" transform="translate(-83.672 -50.293)"/><path d="M286.36,288.264a31.388,31.388,0,0,1-3.133,6.894,38.7,38.7,0,0,1-4.488,6.039,38.576,38.576,0,0,0,4.22-6.192,31.031,31.031,0,0,0,2.8-6.886Z" transform="translate(-85.934 -48.181)"/><path d="M206.3,291.343a22.779,22.779,0,0,0,2.864,4.019c.527.65,1.13,1.237,1.692,1.86l1.812,1.755a60.384,60.384,0,0,0,8.027,6.153,88.648,88.648,0,0,0,8.822,5.029l4.611,2.151,4.709,1.938.059.025.041.042a54.145,54.145,0,0,0,5.763,5.133,51.359,51.359,0,0,0,6.433,4.282,37.606,37.606,0,0,0,7.111,3.017,24.806,24.806,0,0,0,7.664.9,24.851,24.851,0,0,1-7.7-.767,37.789,37.789,0,0,1-7.2-2.91,51.677,51.677,0,0,1-6.548-4.2,54.424,54.424,0,0,1-5.907-5.084l.1.067-4.766-1.865-4.676-2.085a88.928,88.928,0,0,1-8.99-4.922,61.278,61.278,0,0,1-8.262-6.111L210.071,298c-.589-.63-1.217-1.221-1.774-1.884a23.517,23.517,0,0,1-3.11-4.233Z" transform="translate(-118.825 -46.74)"/><path d="M230.8,308.483q3.022,1.9,6.132,3.618c2.077,1.142,4.171,2.25,6.318,3.245,2.133,1.027,4.326,1.916,6.543,2.741a56.617,56.617,0,0,0,6.832,1.949,37.363,37.363,0,0,1-6.984-1.5,62.432,62.432,0,0,1-6.654-2.632c-2.142-1.049-4.256-2.156-6.292-3.394A59.718,59.718,0,0,1,230.8,308.483Z" transform="translate(-107.373 -39.075)"/><g transform="translate(106.553 218.152)"><path d="M268.657,326.017a59.638,59.638,0,0,1-23.612-4.96l-25.906-3.951.14-.919,26.109,4.006c.146.072,14.716,7.11,31.78,4.185,16.161-2.773,56.751-26.234,57.832-51.314l.926.042c-1.1,25.527-42.227,49.376-58.6,52.187A51.372,51.372,0,0,1,268.657,326.017Z" transform="translate(-219.139 -273.065)"/></g><path d="M242.764,310.185a20.531,20.531,0,0,0,3.724,4.2,13.685,13.685,0,0,0,2.281,1.566,9.294,9.294,0,0,0,2.567.876l.071.013.11.075a4.565,4.565,0,0,0,3.415.456,13.81,13.81,0,0,0,3.5-1.428c2.359-1.14,4.781-2.088,7.19-3.077s4.839-1.915,7.281-2.815c2.434-.918,4.89-1.777,7.36-2.6q-7.127,3.193-14.32,6.19c-2.394,1.006-4.773,2.058-7.129,3.11a14.553,14.553,0,0,1-3.724,1.436,5.059,5.059,0,0,1-4.071-.715l.181.087a10.827,10.827,0,0,1-5.03-2.819A18.414,18.414,0,0,1,242.764,310.185Z" transform="translate(-102.021 -39.537)"/><path d="M256.386,318.9l-6.837-1.935,7.086-.527Z" transform="translate(-98.987 -35.519)"/><path d="M248.688,319.625a81.091,81.091,0,0,1-9.423-1.88,90.717,90.717,0,0,1-9.182-2.886,60.268,60.268,0,0,1-8.727-4.1,29.55,29.55,0,0,1-7.515-5.984,37.667,37.667,0,0,0,7.862,5.36,70,70,0,0,0,8.708,3.855c2.955,1.178,6,2.135,9.045,3.067S245.585,318.837,248.688,319.625Z" transform="translate(-114.955 -40.732)"/><path d="M249.519,318.443c-2.292-.182-4.566-.511-6.831-.878s-4.518-.815-6.758-1.318c-2.236-.528-4.467-1.08-6.658-1.779a52,52,0,0,1-6.454-2.423c2.216.612,4.424,1.191,6.644,1.735l6.674,1.562,6.689,1.527C245.056,317.379,247.29,317.883,249.519,318.443Z" transform="translate(-110.941 -37.482)"/><path d="M249.723,316.8a4.406,4.406,0,0,1-1.616,1.048,8.973,8.973,0,0,1-1.864.55,16.93,16.93,0,0,1-3.855.318l.2-.039a52.761,52.761,0,0,1-5.124,2.048q-1.318.423-2.663.76a8.826,8.826,0,0,1-2.757.289,12.954,12.954,0,0,0,2.611-.773c.854-.31,1.69-.671,2.531-1.022l5.035-2.12.1-.041h.1c.624.019,1.246.052,1.868.043s1.246-.013,1.864-.077a14.153,14.153,0,0,0,1.838-.3A5.16,5.16,0,0,0,249.723,316.8Z" transform="translate(-106.816 -35.356)"/><path d="M215.836,316.8c2.965,1.02,5.9,2.106,8.847,3.159,1.479.505,2.941,1.061,4.42,1.538a19.71,19.71,0,0,0,2.193.612,5.63,5.63,0,0,0,1.091.028l1.178-.025a44.426,44.426,0,0,1,4.737.216,17.3,17.3,0,0,1,2.371.411,7.532,7.532,0,0,1,1.171.4c.385.171.766.444,1.033.583a11.943,11.943,0,0,0,4.463.734c1.556.058,3.119-.012,4.683-.107a35.357,35.357,0,0,1-4.679.561,12.2,12.2,0,0,1-4.774-.544c-.433-.207-.7-.388-1.038-.515a7.53,7.53,0,0,0-1.055-.336,16.4,16.4,0,0,0-2.26-.349,44.689,44.689,0,0,0-4.645-.13l-1.171,0a6.443,6.443,0,0,1-1.249-.061,19.574,19.574,0,0,1-2.315-.686c-1.488-.524-2.961-1.062-4.407-1.674C221.528,319.428,218.655,318.175,215.836,316.8Z" transform="translate(-114.063 -35.356)"/><path d="M254.634,317.765a13.47,13.47,0,0,0-2.981,2.017,8.87,8.87,0,0,0-1.2,1.324,8.334,8.334,0,0,0-.844,1.592c-1,2.294-1.893,4.653-2.763,7.013l.007-.041-.13,4.02-.13-4.02v-.017l.007-.023c.716-2.418,1.454-4.826,2.314-7.213a9.175,9.175,0,0,1,.813-1.793,9.673,9.673,0,0,1,1.234-1.554,14.511,14.511,0,0,1,3.11-2.408Z" transform="translate(-100.31 -35.418)"/><path d="M263.223,319.857a78.266,78.266,0,0,1-10.35,6,83.737,83.737,0,0,1-11.077,4.43,66.392,66.392,0,0,1-11.619,2.625,57.647,57.647,0,0,1-11.883.331,57.447,57.447,0,0,0,11.851-.561,65.9,65.9,0,0,0,11.507-2.837,83.32,83.32,0,0,0,10.912-4.611,77.8,77.8,0,0,0,10.106-6.117Z" transform="translate(-112.964 -34.321)"/><path d="M258.732,324.048a42.789,42.789,0,0,1-7.9,6.372,58.559,58.559,0,0,1-8.958,4.7c-.774.336-1.575.608-2.359.915s-1.579.595-2.389.831l-2.412.757-2.453.611c-1.624.454-3.3.673-4.951,1-1.661.273-3.342.42-5.009.637,1.666-.242,3.342-.414,5-.713,1.644-.353,3.313-.6,4.926-1.075l2.437-.645,2.394-.792c.8-.247,1.589-.541,2.365-.863s1.569-.6,2.334-.946a58.431,58.431,0,0,0,8.825-4.807,42.341,42.341,0,0,0,7.687-6.389Z" transform="translate(-111.172 -32.296)"/><path d="M256.471,326.553a18.052,18.052,0,0,1-3.583,4.023,33.772,33.772,0,0,1-4.3,3.156,48.492,48.492,0,0,1-9.6,4.551c-1.648.651-3.366,1.1-5.056,1.619-1.7.473-3.437.847-5.156,1.262-1.741.313-3.476.654-5.22.942l-5.258.692,5.245-.767c1.739-.316,3.467-.68,5.2-1.017,1.709-.44,3.431-.838,5.124-1.334,1.677-.544,3.381-1.014,5.013-1.686a48.164,48.164,0,0,0,9.459-4.654,32.925,32.925,0,0,0,4.191-3.169,17.634,17.634,0,0,0,3.4-3.907Z" transform="translate(-112.964 -31.124)"/><path d="M250.735,326.464a42.4,42.4,0,0,1-12.815,12.912,42.2,42.2,0,0,0,12.546-13.065Z" transform="translate(-104.188 -31.103)"/><path d="M252.593,329.64a34.053,34.053,0,0,1-3.643,6.2,37.39,37.39,0,0,1-4.784,5.411,28.926,28.926,0,0,1-5.912,4.178,21.053,21.053,0,0,1-6.865,2.153,28.677,28.677,0,0,0,3.357-1.2,23.842,23.842,0,0,0,3.162-1.576,37.591,37.591,0,0,0,5.632-4.239,53.671,53.671,0,0,0,4.848-5.161c.76-.909,1.485-1.851,2.174-2.818C251.285,331.637,251.94,330.644,252.593,329.64Z" transform="translate(-107.108 -29.614)"/><path d="M247.519,333.752a19.905,19.905,0,0,1-1.486,5.194,20.306,20.306,0,0,1-2.745,4.611,18.876,18.876,0,0,1-3.836,3.719,22.349,22.349,0,0,1-4.644,2.611,22.2,22.2,0,0,0,4.55-2.734,18.636,18.636,0,0,0,3.685-3.784,19.865,19.865,0,0,0,2.563-4.6,19.46,19.46,0,0,0,1.3-5.065Z" transform="translate(-105.58 -27.798)"/><path d="M260.524,332.918a81.864,81.864,0,0,1-15.4,20.175,58.919,58.919,0,0,1-10.159,7.6,43.323,43.323,0,0,1-11.792,4.531,43.126,43.126,0,0,0,11.635-4.8,58.493,58.493,0,0,0,9.887-7.776,80.993,80.993,0,0,0,14.716-20.272Z" transform="translate(-110.782 -28.391)"/><path d="M254.78,341.516a9.4,9.4,0,0,1-1.368,5.977,18.256,18.256,0,0,1-3.881,4.593,64.232,64.232,0,0,1-9.739,6.8,79.772,79.772,0,0,1-10.641,5.217,46.251,46.251,0,0,1-11.42,3.036,46.189,46.189,0,0,0,11.333-3.25,79.431,79.431,0,0,0,10.491-5.4,63.581,63.581,0,0,0,9.509-6.916A17.484,17.484,0,0,0,252.7,347.1a8.656,8.656,0,0,0,1.177-5.36Z" transform="translate(-113.216 -24.303)"/><path d="M200.591,347.45q1.433,2.815,3.065,5.482a48.488,48.488,0,0,0,3.564,5.109,27.712,27.712,0,0,0,4.313,4.423,16.9,16.9,0,0,0,5.45,2.925,13.35,13.35,0,0,1-5.876-2.352,21.852,21.852,0,0,1-4.611-4.417,32.159,32.159,0,0,1-3.457-5.336A33.2,33.2,0,0,1,200.591,347.45Z" transform="translate(-120.88 -21.65)"/><path d="M202.23,356c2.093,1.274,4.088,2.611,6.136,3.868a55.878,55.878,0,0,0,6.337,3.452,17.65,17.65,0,0,1-6.823-2.661A25.977,25.977,0,0,1,202.23,356Z" transform="translate(-120.147 -17.827)"/><g transform="translate(80.117 324.758)"><path d="M229.6,377.48a39.321,39.321,0,0,1-14.5-2.323c-5.768-2.1-13.884-12.388-14.227-12.825l.974-.763c.081.1,8.237,10.449,13.676,12.426,5.505,2,9.984,2.337,15.861,2.232,5.247-.094,27.839-5.632,34.259-29.5l1.2.321c-6.619,24.6-30,30.316-35.433,30.412Q230.48,377.479,229.6,377.48Z" transform="translate(-200.872 -346.73)"/></g><g transform="translate(81.651 338.21)"><path d="M226.808,377.562c-2.136,0-4.24-.061-6.269-.119l-.462-.013c-7.372-.211-17.709-10.194-18.145-10.619l.863-.886c.1.1,10.427,10.071,17.317,10.268l.462.013c7.2.208,15.35.443,22.4-2.14,7.078-2.593,19.6-17.887,19.724-18.041l.959.781c-.522.64-12.864,15.712-20.258,18.421C238.145,377.152,232.366,377.562,226.808,377.562Z" transform="translate(-201.932 -356.025)"/></g><path d="M254.42,345.313a25.986,25.986,0,0,1-5.043,10.392,35.367,35.367,0,0,1-8.64,7.806l-2.537,1.454c-.842.492-1.763.826-2.641,1.246a40.532,40.532,0,0,1-5.462,2.025c-1.855.563-3.776.89-5.654,1.341-1.922.246-3.841.485-5.757.683l5.666-1.129c1.845-.538,3.726-.938,5.531-1.577a52.612,52.612,0,0,0,5.327-2.113c.855-.424,1.754-.763,2.57-1.258l2.46-1.456a36.72,36.72,0,0,0,8.582-7.467A29.591,29.591,0,0,0,254.42,345.313Z" transform="translate(-112.789 -22.605)"/><path d="M245.415,351.795a12.55,12.55,0,0,1-1.87,3.946,19.8,19.8,0,0,1-2.886,3.315,22.014,22.014,0,0,1-3.543,2.588c-.615.394-1.291.683-1.936,1.013-.674.281-1.347.553-2.033.787,1.217-.8,2.421-1.57,3.575-2.407a39.383,39.383,0,0,0,3.313-2.667,31.869,31.869,0,0,0,2.933-3.062A22.756,22.756,0,0,0,245.415,351.795Z" transform="translate(-106.322 -19.707)"/><g transform="translate(77.641 257.038)"><path d="M200.552,372.978l-1.237,0c0-.043.007-4.492-.146-18.4-.143-13.148,1.983-19.314,2.337-20.25v-1.944c-2.852-5.466,2.786-18.392,3.773-20.566-1.66-3.165-1.766-11.509-1.768-11.874l1.237-.012c.025,2.473.389,9.365,1.75,11.525l.179.287-.143.305c-.068.146-6.806,14.674-3.87,19.873l.08.142-.046,2.615c-.025.061-2.441,6.143-2.291,19.884C200.559,368.482,200.552,372.935,200.552,372.978Z" transform="translate(-199.161 -299.935)"/></g><g transform="translate(75.385 267.392)"><path d="M198.838,330.379l-1.236-.058c.842-18.273,7.967-23.038,8.269-23.232l.667,1.042-.334-.521.336.519C206.472,308.175,199.647,312.832,198.838,330.379Z" transform="translate(-197.602 -307.09)"/></g><path d="M201.632,322.933a19.433,19.433,0,0,0,3.149,2.36,32.138,32.138,0,0,0,3.541,1.871,37.386,37.386,0,0,0,3.76,1.434c1.279.418,2.585.75,3.9,1.051-1.329-.226-2.657-.482-3.965-.828a38.311,38.311,0,0,1-3.873-1.229,32.715,32.715,0,0,1-3.712-1.7,20.066,20.066,0,0,1-3.447-2.3Z" transform="translate(-120.704 -32.613)"/><path d="M200.865,326.971a18.8,18.8,0,0,0,1.8,2.421,23.541,23.541,0,0,0,2.149,2.184,23.827,23.827,0,0,0,5.072,3.486,24.1,24.1,0,0,1-5.369-3.13,23.852,23.852,0,0,1-2.36-2.065,19.38,19.38,0,0,1-2.081-2.4Z" transform="translate(-121.108 -30.807)"/><path d="M201.393,325.117a4.39,4.39,0,0,0,1.114,1.842,12.18,12.18,0,0,0,1.806,1.573,26.486,26.486,0,0,0,4.278,2.37c1.507.656,3.048,1.245,4.618,1.75,1.566.522,3.161.948,4.757,1.382-1.614-.359-3.23-.709-4.825-1.161-1.6-.433-3.175-.951-4.729-1.543a27.063,27.063,0,0,1-4.491-2.224,12.8,12.8,0,0,1-2-1.586,4.869,4.869,0,0,1-1.452-2.323Z" transform="translate(-120.935 -31.637)"/><path d="M199.9,333.549a17.943,17.943,0,0,0,2.777,1.673,29.568,29.568,0,0,0,3.022,1.287c1.036.359,2.085.689,3.156.945s2.15.467,3.24.645c-1.1-.126-2.191-.275-3.274-.495s-2.158-.488-3.221-.8a29.936,29.936,0,0,1-3.12-1.161,18.53,18.53,0,0,1-2.959-1.6Z" transform="translate(-121.357 -27.866)"/><path d="M315.7,282.024a140.51,140.51,0,0,1-10.407,12.23,156.106,156.106,0,0,1-11.625,11.032,125.467,125.467,0,0,1-12.777,9.647,105.993,105.993,0,0,1-13.978,7.761,105.825,105.825,0,0,0,13.806-8.019,124.9,124.9,0,0,0,12.543-9.855,154.631,154.631,0,0,0,11.352-11.2,139.528,139.528,0,0,0,10.077-12.311Z" transform="translate(-91.223 -51.226)"/><path d="M288.08,299.812a94.784,94.784,0,0,1-7.127,8.132,49.505,49.505,0,0,1-3.975,3.661,22.088,22.088,0,0,1-4.489,2.981,21.991,21.991,0,0,0,4.389-3.1,49.2,49.2,0,0,0,3.852-3.758,94.6,94.6,0,0,0,6.854-8.287Z" transform="translate(-88.73 -43.117)"/><path d="M259.79,313.721a6.817,6.817,0,0,1,3.036.122,6.734,6.734,0,0,1,2.737,1.321,6.731,6.731,0,0,1-3.036-.121A6.81,6.81,0,0,1,259.79,313.721Z" transform="translate(-94.408 -36.787)"/><path d="M260.715,315.081a74.1,74.1,0,0,0,12.064-5.174,54.92,54.92,0,0,1-5.8,3.134c-1.99.939-4,1.815-6.059,2.621Z" transform="translate(-93.994 -38.438)"/><path d="M262.019,315.2c1.666-.453,3.327-.958,4.964-1.521.816-.288,1.63-.586,2.425-.926a8.809,8.809,0,0,0,2.246-1.281,8.887,8.887,0,0,1-2.181,1.421c-.779.389-1.577.738-2.381,1.075-1.611.663-3.242,1.266-4.9,1.823Z" transform="translate(-93.411 -37.737)"/><path d="M258.632,315.037a61.491,61.491,0,0,1,8.064,7.352,20.753,20.753,0,0,1,1.744,2.158c.547.789.972,1.566,1.45,2.337.926,1.544,1.889,3.054,2.955,4.486a33.258,33.258,0,0,0,3.434,4.084,29.048,29.048,0,0,0,4.03,3.472,24.368,24.368,0,0,0,9.87,4.023c-.9-.081-1.819-.113-2.716-.273a21.878,21.878,0,0,1-2.673-.637l-1.305-.447c-.43-.166-.839-.378-1.261-.564a22.2,22.2,0,0,1-2.44-1.307,29.068,29.068,0,0,1-7.936-7.621,49.805,49.805,0,0,1-2.965-4.625c-.451-.783-.874-1.611-1.34-2.326-.485-.728-1.01-1.447-1.57-2.146-1.116-1.4-2.331-2.738-3.572-4.049C261.18,317.617,259.9,316.338,258.632,315.037Z" transform="translate(-94.926 -36.144)"/><path d="M302.137,288.214a88.113,88.113,0,0,1-1.323,8.8c-.3,1.451-.643,2.894-1.077,4.311a18.707,18.707,0,0,1-1.693,4.091,18.513,18.513,0,0,0,1.394-4.172c.331-1.428.575-2.878.766-4.333a86.543,86.543,0,0,0,.7-8.763Z" transform="translate(-77.301 -48.17)"/><path d="M306.451,301.145a43.178,43.178,0,0,1-2.527,8.243,45.907,45.907,0,0,1-4.043,7.656,33.834,33.834,0,0,1-5.777,6.479,21.955,21.955,0,0,1-7.637,4,27.212,27.212,0,0,0,7.171-4.538,36.832,36.832,0,0,0,5.475-6.456,52.351,52.351,0,0,0,4.162-7.424c.624-1.281,1.181-2.6,1.7-3.926C305.522,303.856,306,302.508,306.451,301.145Z" transform="translate(-82.478 -42.356)"/><path d="M307.587,308.28a127.035,127.035,0,0,1-4.768,12.3,86.276,86.276,0,0,1-6.2,11.592,86.085,86.085,0,0,0,5.628-11.832,126.353,126.353,0,0,0,4.151-12.4Z" transform="translate(-77.938 -39.319)"/><path d="M298.167,322.736a34.2,34.2,0,0,1-6.392,6.59,30.623,30.623,0,0,1,2.974-3.511A31.146,31.146,0,0,1,298.167,322.736Z" transform="translate(-80.105 -32.701)"/><path d="M301.363,328.98a6.936,6.936,0,0,1-1.573,2.754,13.291,13.291,0,0,1-2.362,2.146,19.138,19.138,0,0,1-2.718,1.647l-1.443.656c-.5.178-.988.373-1.492.531l2.7-1.6c.874-.567,1.76-1.107,2.585-1.731a21.144,21.144,0,0,0,2.382-1.971A9.892,9.892,0,0,0,301.363,328.98Z" transform="translate(-80.105 -29.909)"/><path d="M267.38,331.092a34.394,34.394,0,0,0,4.022,2.638,37.74,37.74,0,0,0,4.362,2.1,30.316,30.316,0,0,0,4.622,1.469,26.56,26.56,0,0,0,4.821.663,26.807,26.807,0,0,1-4.867-.436,30.583,30.583,0,0,1-4.738-1.262,38.108,38.108,0,0,1-4.527-1.919,35.108,35.108,0,0,1-4.26-2.517Z" transform="translate(-91.267 -28.965)"/><path d="M269.052,333.121a27.841,27.841,0,0,0,4.191,2.641,34.006,34.006,0,0,0,4.585,2,33.5,33.5,0,0,0,4.836,1.336,36.033,36.033,0,0,0,4.993.638,35.818,35.818,0,0,1-5.033-.411,33.893,33.893,0,0,1-4.941-1.122,34.832,34.832,0,0,1-4.748-1.815,28.675,28.675,0,0,1-4.457-2.535Z" transform="translate(-90.523 -28.057)"/><path d="M317.63,314.8a102.187,102.187,0,0,1-2.35,10.676,39.139,39.139,0,0,1-1.815,5.19,23.855,23.855,0,0,1-2.952,4.661,43.894,43.894,0,0,1-7.682,7.767,39.678,39.678,0,0,1-9.423,5.462l-.019.009h-.017q-3.339.441-6.7.579a56.567,56.567,0,0,1-6.719-.1,56.449,56.449,0,0,0,6.712-.042c2.233-.139,4.46-.381,6.669-.722l-.035.01a39.313,39.313,0,0,0,9.207-5.606,43.34,43.34,0,0,0,7.4-7.812,23.075,23.075,0,0,0,2.754-4.557,38.205,38.205,0,0,0,1.659-5.1,101.012,101.012,0,0,0,2.091-10.595Z" transform="translate(-85.393 -36.332)"/><g transform="translate(189.232 290.172)"><path d="M288.688,349.433a51.808,51.808,0,0,1-12.418-1.509l.324-1.194c.1.026,10.2,2.721,20.032.71,9.255-1.888,16.8-13.718,17.57-14.967l1.284-9.643,1.226.165L315.324,333c-.33.553-8.2,13.557-18.45,15.651A41.14,41.14,0,0,1,288.688,349.433Z" transform="translate(-276.27 -322.831)"/></g><path d="M278.91,342.411A6.24,6.24,0,0,0,280.7,343.7a9.34,9.34,0,0,0,2.216.758,11.6,11.6,0,0,0,2.386.217,15.764,15.764,0,0,0,2.424-.232,15.929,15.929,0,0,1-2.4.54,12.146,12.146,0,0,1-2.493.088,10.1,10.1,0,0,1-2.492-.518,7.167,7.167,0,0,1-2.328-1.3Z" transform="translate(-86.26 -23.903)"/><path d="M293.372,350.652c1.91-.951,3.809-1.919,5.651-2.974a24.086,24.086,0,0,0,5.14-3.621,31.645,31.645,0,0,0,3.648-5.155c1.109-1.813,2.152-3.672,3.2-5.53a60.308,60.308,0,0,1-2.792,5.768,28.808,28.808,0,0,1-3.615,5.344,22.533,22.533,0,0,1-5.359,3.609A49.02,49.02,0,0,1,293.372,350.652Z" transform="translate(-79.391 -27.945)"/><g transform="translate(207.766 315.305)"><path d="M289.86,357.023l-.783-2.347a100.965,100.965,0,0,0,11.4-4.663l1.064-.495c1.774-.818,6.748-6.151,9.467-9.32l1.878,1.612c-.755.88-7.466,8.642-10.31,9.955l-1.052.489A104.442,104.442,0,0,1,289.86,357.023Z" transform="translate(-289.077 -340.198)"/></g><path d="M249.764,359.845a27.9,27.9,0,0,1-.755,4.689,35.672,35.672,0,0,1-1.54,4.509,34,34,0,0,1-4.893,8.174,23.806,23.806,0,0,1-1.585,1.789,18.044,18.044,0,0,1-1.683,1.693l-1.771,1.6c-.625.492-1.273.955-1.915,1.424a40.761,40.761,0,0,1-4.023,2.546c-1.4.75-2.87,1.35-4.294,2.03,1.383-.771,2.806-1.46,4.143-2.292a41.6,41.6,0,0,0,3.89-2.666l1.855-1.452,1.726-1.6a17.651,17.651,0,0,0,1.637-1.686c.509-.6,1.09-1.132,1.538-1.777a35.359,35.359,0,0,0,4.939-7.974A32.818,32.818,0,0,0,249.764,359.845Z" transform="translate(-108.934 -16.107)"/><path d="M253.682,363.051a25.993,25.993,0,0,1-8.1,9.012,35.544,35.544,0,0,1-11.064,5.146l-2.983.709c-1.007.168-2.023.284-3.033.428l-1.517.205c-.508.043-1.019.048-1.528.074l-3.056.109c-2.035-.023-4.068-.208-6.1-.313l-6.023-.938,6.049.635c2.025.042,4.048.175,6.067.139l3.026-.166c.5-.029,1.009-.039,1.511-.085l1.5-.219c1-.152,2-.275,2.99-.45l2.935-.725a36.319,36.319,0,0,0,10.954-4.938,24.17,24.17,0,0,0,2.417-1.812c.382-.328.784-.637,1.152-.983l1.08-1.059A23.089,23.089,0,0,0,253.682,363.051Z" transform="translate(-116.548 -14.673)"/><path d="M247.41,365.829a21.2,21.2,0,0,1-4.056,6.825,30.57,30.57,0,0,1-6,5.272,35.874,35.874,0,0,1-3.492,1.952,29.546,29.546,0,0,1-3.676,1.567c-1.24.485-2.547.77-3.815,1.161-1.3.281-2.609.5-3.907.75,1.279-.35,2.564-.666,3.828-1.042,1.242-.447,2.522-.78,3.726-1.313a39.23,39.23,0,0,0,7-3.592A32.339,32.339,0,0,0,243,372.34,24.46,24.46,0,0,0,247.41,365.829Z" transform="translate(-111.101 -13.431)"/><g transform="translate(90.57 339.631)"><path d="M222.879,407.621c-4.638,0-11.781-.787-14.784-4.129l.92-.826c3.7,4.116,15.307,3.876,17.392,3.509,2.469-.428,14.26-4.1,20.3-9.74a22.372,22.372,0,0,0,6.514-13.4l.01-.158.085-.133a41.489,41.489,0,0,0,6.292-25.56l1.226-.175a42.8,42.8,0,0,1-6.392,26.268,23.257,23.257,0,0,1-6.891,14.065c-6.233,5.826-18.383,9.612-20.926,10.054A24.772,24.772,0,0,1,222.879,407.621Z" transform="translate(-208.095 -357.007)"/></g><path d="M208.637,390.814a23.609,23.609,0,0,0,5.2,1.839,39.211,39.211,0,0,0,5.543.917,46.979,46.979,0,0,0,5.64.22,23.691,23.691,0,0,0,5.56-.664,35.229,35.229,0,0,0,10.206-4.751,54.351,54.351,0,0,0,8.753-7.23,54.5,54.5,0,0,1-8.579,7.486,35.7,35.7,0,0,1-10.22,5.091,24.411,24.411,0,0,1-5.7.842,48.092,48.092,0,0,1-5.74-.069,40.313,40.313,0,0,1-5.706-.787,24.418,24.418,0,0,1-5.56-1.816Z" transform="translate(-117.553 -6.582)"/><path d="M246.712,375.271c-.08-1.845-.2-3.672-.459-5.46a17.039,17.039,0,0,0-.557-2.614,5.673,5.673,0,0,0-1.156-2.229l.6-.659a24.451,24.451,0,0,1,2.624,2.7,10.921,10.921,0,0,1,1.935,3.214,16.211,16.211,0,0,0-2.405-2.782c-.873-.854-1.8-1.674-2.726-2.446l.6-.66a5.889,5.889,0,0,1,1.394,2.6,13.163,13.163,0,0,1,.479,2.789,21.147,21.147,0,0,1,.014,2.792A20.933,20.933,0,0,1,246.712,375.271Z" transform="translate(-101.227 -14.11)"/><path d="M245.784,367.551a21.518,21.518,0,0,1,.747,6.123,25.27,25.27,0,0,1-.831,6.143,24.986,24.986,0,0,1-4.006,8.35c-.606.832-1.321,1.585-1.993,2.356a34.946,34.946,0,0,0,3.249-5.184,26.337,26.337,0,0,0,2.152-5.679,27.566,27.566,0,0,0,.955-6A28.894,28.894,0,0,0,245.784,367.551Z" transform="translate(-103.391 -12.661)"/><path d="M217.408,406.69c3.392-.47,6.779-.906,10.194-1.221l1.285-.1.644-.042.566-.107a11.382,11.382,0,0,0,2.3-.861,39.659,39.659,0,0,0,4.4-2.521,72.856,72.856,0,0,0,8.148-6.135c2.528-2.258,5.1-4.586,6.789-7.573-1.6,3.041-4.114,5.462-6.582,7.8a73.289,73.289,0,0,1-8.012,6.418,40.086,40.086,0,0,1-4.4,2.7,11.89,11.89,0,0,1-2.456,1l-.687.145-.632.062-1.263.14c-3.372.414-6.744.952-10.1,1.52Z" transform="translate(-113.36 -3.46)"/><g transform="translate(106.413 403.107)"><path d="M223.557,407.522h-.928V404.8l-3.586-3.243.622-.689,3.892,3.518Z" transform="translate(-219.043 -400.869)"/></g><g transform="translate(110.378 403.449)"><path d="M226.284,405.321a26.512,26.512,0,0,1-4.5-.378l.171-.912c.069.013,7.071,1.279,11.2-1.08,4.42-2.525,9.852-1.738,10.081-1.7l-.139.917c-.052-.009-5.349-.768-9.482,1.592A15.22,15.22,0,0,1,226.284,405.321Z" transform="translate(-221.782 -401.105)"/></g><path d="M236.308,408.381c2.013-1.42,3.972-2.978,5.865-4.586a70.354,70.354,0,0,0,5.438-5.113,42.915,42.915,0,0,0,4.738-5.76,21.528,21.528,0,0,0,3.2-6.719,21.652,21.652,0,0,1-2.939,6.887,43.449,43.449,0,0,1-4.541,6.01,71.024,71.024,0,0,1-5.278,5.388c-1.851,1.708-3.744,3.349-5.758,4.9Z" transform="translate(-104.908 -4.32)"/><path d="M252.074,359.845s-5.094,2.931-4.373,5.126" transform="translate(-99.845 -16.107)" fill="none" stroke="#000" stroke-miterlimit="10" stroke-width="0.5"/><path d="M244.115,361.625a4.816,4.816,0,0,1,3.227.31,6,6,0,0,1,2.347,2.029,10.683,10.683,0,0,1,.795,1.285c.194.456.42.9.583,1.366a22.5,22.5,0,0,1,.787,2.82l.006.022v.017a34.5,34.5,0,0,1-.1,6.6q-.317,3.267-.923,6.488l-.006.032-.012.025-6.506,13.857,6.072-14.052-.016.055c.331-2.139.573-4.3.715-6.459a33.936,33.936,0,0,0-.1-6.433l.006.038a21.865,21.865,0,0,0-.831-2.657c-.166-.43-.388-.829-.576-1.246a9.779,9.779,0,0,0-.742-1.119,4.9,4.9,0,0,0-1.972-1.619,3.705,3.705,0,0,0-2.357-.187Z" transform="translate(-101.417 -15.378)"/><path d="M246.766,401.453a23.928,23.928,0,0,0,5.457-2.74l.226-.2c.049-.07.094-.093.162-.193l.408-.656c.271-.45.534-.913.79-1.379.511-.933,1-1.881,1.457-2.847a42.294,42.294,0,0,0,2.35-5.961,20.174,20.174,0,0,0,.987-6.333,20.51,20.51,0,0,1-.386,6.483,43.236,43.236,0,0,1-1.809,6.287c-.369,1.029-.779,2.043-1.21,3.051-.217.5-.443,1-.682,1.505-.117.249-.242.5-.378.758a4.962,4.962,0,0,1-.31.465c-.113.136-.224.25-.34.376a15.471,15.471,0,0,1-2.81,2.055c-.962.58-1.92,1.1-2.936,1.6Z" transform="translate(-100.232 -6.582)"/><g transform="translate(154.799 347.632)"><path d="M252.829,404.047l-.352-1.187c9.161-2.724,13.381-10.392,14.456-12.677.964-2.048,1.148-8.233,1.258-11.929.026-.855.049-1.614.077-2.217.119-2.614-4.912-10.1-6.86-12.771l1-.729c.742,1.017,7.255,10.038,7.1,13.556-.028.6-.051,1.352-.075,2.2-.12,4.038-.3,10.139-1.375,12.42C266.921,393.112,262.483,401.176,252.829,404.047Z" transform="translate(-252.477 -362.536)"/></g><path d="M255.179,397.47l3.98-6.033,1.941-3.042c.311-.508.643-1.025.891-1.53a9.583,9.583,0,0,0,.512-1.653,31.351,31.351,0,0,0,.722-7.124,17.924,17.924,0,0,0-.37-3.57,7.538,7.538,0,0,0-1.415-3.275A7.6,7.6,0,0,1,263,374.482a18.042,18.042,0,0,1,.53,3.593,31.687,31.687,0,0,1-.426,7.263,10.091,10.091,0,0,1-.485,1.818c-.261.586-.563,1.1-.858,1.632l-1.818,3.136-3.725,6.211Z" transform="translate(-96.47 -11.01)"/><path d="M252.028,395.84a14,14,0,0,0,5.776-.045,13.173,13.173,0,0,0,5.273-2.438,16.161,16.161,0,0,0,3.8-4.467c.521-.838.87-1.771,1.315-2.654l.962-2.81-.891,2.838c-.423.9-.748,1.845-1.252,2.7a16.353,16.353,0,0,1-3.741,4.634,13.563,13.563,0,0,1-5.363,2.65,14.493,14.493,0,0,1-6.026.192Z" transform="translate(-97.945 -5.562)"/><path d="M249.116,397.028a8.819,8.819,0,0,0,2.42,1.715,12.773,12.773,0,0,0,2.893,1.012,15.5,15.5,0,0,0,3.088.317,20.248,20.248,0,0,0,3.123-.255,20.274,20.274,0,0,1-3.116.486,15.876,15.876,0,0,1-3.177-.091,13.41,13.41,0,0,1-3.1-.835,9.508,9.508,0,0,1-2.812-1.718Z" transform="translate(-99.485 0.521)"/><path d="M250.4,398.112a7.464,7.464,0,0,0,1.5,1.52,9.9,9.9,0,0,0,1.868,1.14,10.705,10.705,0,0,0,2.088.715,13.244,13.244,0,0,0,2.2.318,13.332,13.332,0,0,1-2.234-.166,11.04,11.04,0,0,1-2.179-.582,10.326,10.326,0,0,1-2.019-1.049,7.887,7.887,0,0,1-1.737-1.541Z" transform="translate(-98.833 1.005)"/><path d="M248.872,400.908a9.064,9.064,0,0,0,1.116,1.252,9.548,9.548,0,0,0,1.349,1.055,7.363,7.363,0,0,0,1.546.767,6.772,6.772,0,0,0,1.709.369,6.978,6.978,0,0,1-1.773-.146,7.769,7.769,0,0,1-1.706-.583,10.139,10.139,0,0,1-1.566-.923,9.877,9.877,0,0,1-1.4-1.214Z" transform="translate(-99.616 2.256)"/><g transform="translate(153.278 353.634)"><path d="M254.154,427.2a12.022,12.022,0,0,1-2.728-.315l.278-1.205c11.033,2.543,18.716-13.436,18.793-13.6a30.235,30.235,0,0,0,4.376-19.553c-1.34-11.864,3.722-25.7,3.774-25.844l1.159.43c-.051.135-5.012,13.708-3.7,25.275a30.824,30.824,0,0,1-4.546,20.318C271.307,413.259,264.6,427.2,254.154,427.2Z" transform="translate(-251.426 -366.683)"/></g><path d="M252.221,373.741a13.8,13.8,0,0,1,1.983,1.794,14.361,14.361,0,0,1,1.648,2.126,9.071,9.071,0,0,1,1.139,2.46,4.429,4.429,0,0,1,.032,2.685,5.836,5.836,0,0,0-.483-2.533,13.74,13.74,0,0,0-1.21-2.282A52.552,52.552,0,0,0,252.221,373.741Z" transform="translate(-97.793 -9.893)"/><path d="M256.442,373.741a10.875,10.875,0,0,1,1.352,2.009,13.287,13.287,0,0,1,.957,2.237,8.5,8.5,0,0,1,.239,4.819,16.158,16.158,0,0,0-.242-2.36c-.165-.767-.347-1.525-.586-2.274C257.685,376.676,257.079,375.221,256.442,373.741Z" transform="translate(-95.905 -9.893)"/><g transform="translate(221.425 54.92)"><path d="M313.747,172.234c-5.761,7.19-14.34,5.027-14.34,5.027s-.68-13.784,4.43-15.841C309.82,159.014,313.747,172.234,313.747,172.234Z" transform="translate(-298.131 -159.889)" fill="#fff"/><path d="M302.865,179.2a14.787,14.787,0,0,1-3.375-.353l-.889-.224-.045-.915c-.074-1.5-.557-14.731,5.2-17.049a4.983,4.983,0,0,1,4.166.152c4.524,2.185,7.111,10.515,7.392,11.457l.185.621-.405.505A15.269,15.269,0,0,1,302.865,179.2Zm-1.871-2.592a13.176,13.176,0,0,0,11.755-4.262c-.876-2.622-3.139-7.975-5.9-9.307a2.52,2.52,0,0,0-2.165-.085C301.758,164.129,300.892,171.567,300.994,176.605Z" transform="translate(-298.516 -160.272)"/></g><path d="M313.059,174.645A13.47,13.47,0,0,1,312,176.321a15.706,15.706,0,0,1-1.232,1.494,13.836,13.836,0,0,1-2.942,2.425,13.506,13.506,0,0,0,2.456-2.809,15.147,15.147,0,0,0,.928-1.595,12.7,12.7,0,0,0,.7-1.657Z" transform="translate(-72.927 -99.133)"/><g transform="translate(222.589 83.784)"><path d="M302.79,187.758c-1.923,0-3.278-.122-3.47-.14l.117-1.232c.165.016,16.454,1.473,18.462-6.169l1.2.314C317.434,186.858,308.016,187.758,302.79,187.758Z" transform="translate(-299.32 -180.217)"/></g><path d="M314.19,177.132l-.466,11.378-.007-.1c.275,3.133.528,6.255.6,9.408a18.7,18.7,0,0,0,.064,2.284,4.6,4.6,0,0,0,1.033,1.945,12.6,12.6,0,0,0,3.677,2.8,12.754,12.754,0,0,1-3.961-2.544,5.047,5.047,0,0,1-1.308-2.061,18.074,18.074,0,0,1-.274-2.382c-.329-3.088-.836-6.179-1.362-9.246l0-.022,0-.083-.466-11.378Z" transform="translate(-71.187 -97.812)"/><path d="M314.779,192.282a12.535,12.535,0,0,0-2.486,1.389,4.425,4.425,0,0,0-1.781,2.208,4.705,4.705,0,0,1,1.363-2.664,13.4,13.4,0,0,1,2.323-2.025Z" transform="translate(-71.726 -91.525)"/><g transform="translate(240.656 63.866)"><path d="M328.988,178.38s-1.732,6.01-5.289,7.764c-7.732,1.984-10.98-3.916-10.98-3.916s-1.056-11.334,5.954-14.456S328.988,178.38,328.988,178.38Z" transform="translate(-311.421 -166.07)" fill="#fff"/><path d="M321.063,188.165a10.41,10.41,0,0,1-9.043-4.955l-.124-.227-.025-.256c-.046-.5-1.049-12.258,6.683-15.7a5.7,5.7,0,0,1,5.039.029c4.748,2.339,6.893,11.051,6.981,11.42l.077.318-.09.314c-.077.266-1.931,6.557-5.932,8.531l-.239.09A13.406,13.406,0,0,1,321.063,188.165Zm-6.747-5.941c.622.939,3.46,4.574,9.329,3.139,2.3-1.226,3.9-4.933,4.443-6.63-.64-2.424-2.65-8.013-5.59-9.46a3.288,3.288,0,0,0-2.938.013C314.011,171.757,314.224,180.553,314.316,182.224Z" transform="translate(-311.804 -166.454)"/></g><path d="M313.084,184.125a6.515,6.515,0,0,0,1.582,1.619,9.861,9.861,0,0,0,2.065,1.162,12.458,12.458,0,0,0,2.311.683,16.857,16.857,0,0,0,2.421.274,17.17,17.17,0,0,1-2.454-.043,12.928,12.928,0,0,1-2.434-.476,10.427,10.427,0,0,1-2.3-1.022,7.217,7.217,0,0,1-1.977-1.7Z" transform="translate(-70.926 -94.685)"/><g transform="translate(253.083 82.732)"><path d="M329.523,179.518s-10.417,4.443-8.175,11.247,16.933,3.169,16.933,3.169,9.742-12.288-6.881-14.417Z" transform="translate(-320.105 -179.477)" fill="#fff"/><path d="M330.058,180.742a.362.362,0,0,0,.139-.033l-.111.049-.221.1-.45.211c-.3.152-.6.3-.89.462a18.932,18.932,0,0,0-1.711,1.038,14.284,14.284,0,0,0-2.941,2.564,6.355,6.355,0,0,0-1.564,3.247c-.02.292-.006.588-.019.883a5.189,5.189,0,0,0,.14.883,3.41,3.41,0,0,0,.693,1.575,5.866,5.866,0,0,0,3.093,1.92,16.356,16.356,0,0,0,3.984.59,36.24,36.24,0,0,0,8.246-.768l-.272.175a15.135,15.135,0,0,0,2.453-4.478,6.593,6.593,0,0,0-.074-4.926,7.257,7.257,0,0,0-3.8-3.3,20.789,20.789,0,0,0-5.077-1.363h.006l-1.877-.041Zm-2.906-1.153,2.657-.058,1.877-.04h0a20.966,20.966,0,0,1,5.185,1.155,7.688,7.688,0,0,1,4.162,3.343,7.249,7.249,0,0,1,.33,5.394,15.965,15.965,0,0,1-2.407,4.877l-.094.132-.179.045a37.335,37.335,0,0,1-8.506,1.165,17.816,17.816,0,0,1-4.378-.462,7.492,7.492,0,0,1-4.041-2.336,5.171,5.171,0,0,1-1.106-2.2,7.033,7.033,0,0,1-.239-1.187c-.012-.408-.039-.821-.022-1.229a8.314,8.314,0,0,1,1.828-4.365,16.377,16.377,0,0,1,3.266-3.124C326.026,180.3,326.585,179.934,327.152,179.588Z" transform="translate(-320.391 -179.49)"/></g><path d="M324.549,189.771a31.323,31.323,0,0,0,4.852,1.292,27.139,27.139,0,0,0,5.027.493,18.949,18.949,0,0,0,5.006-.657,13.036,13.036,0,0,0,4.466-2.381,13.181,13.181,0,0,1-4.37,2.674,19.383,19.383,0,0,1-5.081.981,28,28,0,0,1-5.188-.194,32.284,32.284,0,0,1-5.12-1.042Z" transform="translate(-65.631 -92.72)"/><path d="M324.2,189.509a13.714,13.714,0,0,0,3.33,3.441,11.311,11.311,0,0,0,4.41,1.955,6.635,6.635,0,0,0,1.205.175,5.955,5.955,0,0,0,1.221.055l1.229-.055,1.211-.223.608-.114.588-.193,1.178-.385c.766-.311,1.5-.693,2.259-1.039-.738.379-1.46.8-2.214,1.146l-1.169.444-.586.221-.609.145-1.226.285-1.256.114a6.229,6.229,0,0,1-1.262,0,6.816,6.816,0,0,1-1.26-.124,11.887,11.887,0,0,1-4.718-1.836,14.445,14.445,0,0,1-3.719-3.517Z" transform="translate(-65.954 -92.278)"/><path d="M326.658,191.871a11.611,11.611,0,0,0-1.266,2.961,9.038,9.038,0,0,0-.313,3.256,6.4,6.4,0,0,0,1.132,3.11,9.149,9.149,0,0,0,2.507,2.42,9.465,9.465,0,0,1-2.987-2.03,7.346,7.346,0,0,1-1.865-3.258,10.6,10.6,0,0,1-.3-3.818,13.6,13.6,0,0,1,.9-3.795Z" transform="translate(-65.913 -91.737)"/><g transform="translate(279.041 89.885)"><rect width="2.474" height="5.799" transform="matrix(0.96, -0.28, 0.28, 0.96, 0, 0.693)"/></g><g transform="translate(271.05 90.809)"><path d="M339.645,214.9a7.168,7.168,0,0,1-4.263-1.2c-2.111-1.525-2.932-4.326-2.434-8.326,1.692-13.614,16.22-20.035,16.838-20.3l.981,2.272c-.138.059-13.848,6.14-15.365,18.334-.376,3.035.1,5.059,1.428,6.016,2.353,1.7,7.153.075,8.935-.747,3.625-2.583,9.473-7.5,10.012-9.919.779-3.491,1.845-8.272-3.048-13.881l1.864-1.625c5.716,6.55,4.391,12.493,3.6,16.046-.928,4.158-10.048,10.727-11.085,11.462l-.184.107A19.419,19.419,0,0,1,339.645,214.9Z" transform="translate(-332.806 -185.071)"/></g><g transform="translate(271.058 100.327)"><path d="M350.719,204.289c2.783-12.68-12.926-11.771-12.926-11.771s-7.042,8.53-2.7,16.3c4.236,4.676,12.965-1.077,14.452-2.841S350.719,204.289,350.719,204.289Z" transform="translate(-332.425 -191.265)" fill="#fff"/><path d="M339.784,212.225a6.746,6.746,0,0,1-5.224-2.2l-.164-.227c-4.7-8.41,2.52-17.313,2.829-17.687l.344-.415.538-.032c.344-.019,8.533-.439,12.5,4.208,1.9,2.226,2.495,5.174,1.771,8.764.027.7-.6,1.446-1.5,2.517-1.149,1.362-6.247,4.986-10.92,5.068Zm-3.3-3.76a4.378,4.378,0,0,0,3.423,1.284c3.871-.069,8.269-3.237,9.072-4.19.544-.647.8-.99.916-1.158.641-2.926.246-5.256-1.175-6.922-2.632-3.085-8.048-3.357-9.864-3.357H338.8C337.546,195.865,333.271,202.508,336.488,208.466Z" transform="translate(-332.812 -191.648)"/></g><path d="M335.513,202.083a7.978,7.978,0,0,1-1.538.084,8.828,8.828,0,0,1-1.489-.179,7.448,7.448,0,0,1-2.7-1.127,7.241,7.241,0,0,0,2.764.667,8.368,8.368,0,0,0,1.4-.055,7.352,7.352,0,0,0,1.331-.287Z" transform="translate(-63.109 -87.202)"/><g transform="translate(232.893 110.881)"><path d="M344.961,237.44c-4.644,0-19.589-4.015-23.327-5.463-1.645-.353-3.329.027-5.443,1.232-2.709,1.541-9.039.449-9.751.32l.441-2.434c2.352.427,6.628.793,8.085-.036,2.693-1.534,5.015-2,7.308-1.473l.176.056c3.8,1.5,18.385,5.324,22.509,5.324,2.91,0,3.906-.876,7.611-4.14,1.153-1.016,2.54-2.237,4.286-3.692,6.951-5.784,8.146-19.625,8.158-19.764l0-8.428h2.473v8.528c-.052.711-1.3,15.122-9.043,21.566-1.726,1.437-3.094,2.643-4.234,3.647C350.386,236.048,348.8,237.44,344.961,237.44Z" transform="translate(-306.44 -198.941)"/></g><path d="M347.579,210.368a1.335,1.335,0,0,0,.556-.088,2.605,2.605,0,0,0,.674-.343,5.646,5.646,0,0,0,1.207-1.13,13.944,13.944,0,0,0,1.79-3.02,28.912,28.912,0,0,0,1.268-3.36c.376-1.143.661-2.316.965-3.485-.2,1.19-.388,2.386-.667,3.566a29.3,29.3,0,0,1-.993,3.512,14.631,14.631,0,0,1-1.621,3.343,6.605,6.605,0,0,1-1.311,1.449,3.725,3.725,0,0,1-.891.55,2.307,2.307,0,0,1-1.208.221Z" transform="translate(-55.254 -88.06)"/><g transform="translate(292.645 113.941)"><rect width="0.928" height="6.428" transform="matrix(0.901, -0.433, 0.433, 0.901, 0, 0.402)"/></g><path d="M314.483,221.51a12.036,12.036,0,0,1,4.463-1.883,20.2,20.2,0,0,1,4.721-.433,28.961,28.961,0,0,1,4.683.483l2.294.505,2.255.645-.012,0a27.5,27.5,0,0,0,7.936.6,27.6,27.6,0,0,1-7.994-.328l-.012,0-2.256-.563-2.284-.42a28.342,28.342,0,0,0-4.611-.314,19.589,19.589,0,0,0-4.543.573,11.443,11.443,0,0,0-4.032,1.839Z" transform="translate(-69.95 -79.004)"/><path d="M319.335,225.384l-7.786-8.671.1.068a25.875,25.875,0,0,1-3.962-1.99,13.415,13.415,0,0,1-1.792-1.3,6.361,6.361,0,0,1-1.425-1.673,6.235,6.235,0,0,0,1.511,1.57,13.2,13.2,0,0,0,1.839,1.175,25.487,25.487,0,0,0,4.006,1.718l.055.019.049.048,8.3,8.185Z" transform="translate(-74.426 -82.303)"/><path d="M300.445,198.715a32.273,32.273,0,0,0,1.9,5.3,46.276,46.276,0,0,0,2.688,5.1,48.739,48.739,0,0,0,3.314,4.771,54.865,54.865,0,0,0,3.849,4.4,55.679,55.679,0,0,1-4.317-4,50.4,50.4,0,0,1-3.868-4.479,48.029,48.029,0,0,1-3.317-4.954,33.819,33.819,0,0,1-2.632-5.492Z" transform="translate(-77.294 -88.161)"/><g transform="translate(207.774 114.857)"><path d="M290.054,224.461l-.971-.767c2.033-2.576,5-6.44,5.23-6.967.185-.622.051-5.577-.006-7.693-.022-.812-.039-1.436-.039-1.7-.016-.557-1.65-2.973-3.168-4.877l.967-.771c.806,1.012,3.438,4.41,3.438,5.648,0,.258.016.868.038,1.664.152,5.59.13,7.657-.082,8.188C295.144,217.985,291.242,222.956,290.054,224.461Z" transform="translate(-289.083 -201.688)"/></g><g transform="translate(180.838 117.401)"><path d="M283.536,223.23c8.621-8.538,0-18.867,0-18.867s-7.414,1.119-10.478,5.383-2.19,10.041,3.559,11.973S283.536,223.23,283.536,223.23Z" transform="translate(-270.089 -203.036)" fill="#fff"/><path d="M283.5,224.916A25.775,25.775,0,0,1,276.6,223.3a8.629,8.629,0,0,1-5.742-5.465,9.552,9.552,0,0,1,1.572-8.4c3.33-4.635,10.975-5.835,11.3-5.884l.687-.1.446.535c.094.111,9.242,11.307-.078,20.537l-.2.194-.258.093A2.591,2.591,0,0,1,283.5,224.916Zm-.1-18.786c-1.831.388-6.755,1.683-8.958,4.747a7.085,7.085,0,0,0-1.226,6.2,6.142,6.142,0,0,0,4.175,3.878,24.266,24.266,0,0,0,5.97,1.485C289.622,215.847,284.94,208.254,283.4,206.13Z" transform="translate(-270.47 -203.446)"/></g><g transform="translate(286.828 123.887)"><path d="M344.324,229.757l-.615-1.074c1.88-1.074,7.015-4.178,8.188-5.625s5.174-11.417,6.611-15.13l1.153.447c-.535,1.385-5.279,13.585-6.8,15.462C351.3,225.76,344.608,229.6,344.324,229.757Z" transform="translate(-343.709 -207.928)"/></g><path d="M347.735,215.592a29.328,29.328,0,0,1-.365,5.12,27.607,27.607,0,0,1-1.216,4.913,19.752,19.752,0,0,1-2.3,4.482,14.109,14.109,0,0,1-3.586,3.418,13.813,13.813,0,0,0,3.064-3.747,18.911,18.911,0,0,0,1.632-4.5,26.058,26.058,0,0,0,.556-4.741,27.416,27.416,0,0,0-.249-4.7Z" transform="translate(-58.419 -80.614)"/><g transform="translate(238.443 137.133)"><path d="M334.048,238.41q-.84,0-1.64-.035c-10.577-.467-21.667-12.424-22.133-12.933l.683-.627c.111.12,11.3,12.184,21.491,12.634,9.891.441,24.971-3.473,26.3-3.826.968-.792,11.1-9.276,9.333-16.315l.9-.226c1.991,7.933-9.25,16.948-9.729,17.329l-.168.084C358.935,234.534,344.462,238.41,334.048,238.41Z" transform="translate(-310.275 -217.081)"/></g><g transform="translate(238.029 161.35)"><path d="M344.98,255.352c-7.789,0-15.084-2.572-19.4-6.039a209.366,209.366,0,0,1-15.593-14.641l.893-.857a208.074,208.074,0,0,0,15.475,14.534c6.124,4.92,18.538,7.949,29.491,3.873,10.428-3.884,22.179-14.19,22.3-14.294l.819.928c-.12.106-12.039,10.56-22.685,14.527A32.422,32.422,0,0,1,344.98,255.352Z" transform="translate(-309.989 -233.815)"/></g><path d="M361.655,219.626c-.99,1.6-2.028,3.091-3.117,4.577s-2.224,2.919-3.441,4.292a41.87,41.87,0,0,1-3.858,3.909,22.885,22.885,0,0,1-4.467,3.136,22.523,22.523,0,0,0,4.033-3.576,40.849,40.849,0,0,0,3.318-4.232c1.027-1.467,1.967-3,2.862-4.546s1.744-3.145,2.485-4.722Z" transform="translate(-55.512 -79.329)"/><path d="M308.67,229.33a35.726,35.726,0,0,0,5.4,4.4,42.271,42.271,0,0,0,6.107,3.457,41.343,41.343,0,0,0,6.6,2.444,44.5,44.5,0,0,0,6.923,1.356,44.743,44.743,0,0,1-6.983-1.132,41.745,41.745,0,0,1-6.726-2.245,42.986,42.986,0,0,1-6.3-3.3A36.394,36.394,0,0,1,308,229.971Z" transform="translate(-72.849 -74.47)"/><path d="M307.89,225.985a86.915,86.915,0,0,0,8.536,5.938,39.375,39.375,0,0,0,9.428,4.378,39.557,39.557,0,0,1-9.66-3.975,87.785,87.785,0,0,1-8.871-5.6Z" transform="translate(-73.152 -75.966)"/><path d="M364.557,224.874a31.011,31.011,0,0,1-9.078,12.548,26.858,26.858,0,0,1-6.583,4.085,31.216,31.216,0,0,1-7.4,2.22,31.058,31.058,0,0,0,7.3-2.43,26.542,26.542,0,0,0,6.379-4.227,30.359,30.359,0,0,0,8.5-12.479Z" transform="translate(-57.869 -76.589)"/><path d="M315.075,221.235a11.585,11.585,0,0,0,3.317,4.087,22.129,22.129,0,0,0,4.569,2.9,36.738,36.738,0,0,0,5.061,2.012l2.63.738,2.667.6-2.684-.525-2.657-.664a37.035,37.035,0,0,1-5.149-1.881,22.573,22.573,0,0,1-4.728-2.815,15.691,15.691,0,0,1-2.03-1.893,8.717,8.717,0,0,1-1.577-2.353Z" transform="translate(-69.946 -78.09)"/><path d="M316.054,220.9a22.312,22.312,0,0,0,2.819,2.654,25.611,25.611,0,0,0,3.213,2.213,23.9,23.9,0,0,0,3.514,1.716,24.569,24.569,0,0,0,3.751,1.149,24.759,24.759,0,0,1-3.8-1,24.15,24.15,0,0,1-3.611-1.592,25.983,25.983,0,0,1-3.346-2.114,22.894,22.894,0,0,1-3-2.616Z" transform="translate(-69.457 -78.242)"/><path d="M214.764,148.548a36.3,36.3,0,0,1,7.764-4.511,64.551,64.551,0,0,1,8.36-2.99,83.42,83.42,0,0,1,8.63-1.968c1.452-.258,2.916-.443,4.37-.667l4.392-.472-4.369.625c-1.446.275-2.9.511-4.334.816a83.521,83.521,0,0,0-8.508,2.256,64.257,64.257,0,0,0-8.151,3.24,35.573,35.573,0,0,0-7.32,4.583Z" transform="translate(-114.542 -115.338)"/><path d="M215.775,146.679a39.952,39.952,0,0,1,5.88-4.67,42.43,42.43,0,0,1,6.567-3.528,35.039,35.039,0,0,1,7.081-2.247,34.259,34.259,0,0,1,7.365-.715,34.157,34.157,0,0,0-7.3,1.017,34.524,34.524,0,0,0-6.894,2.508,41.824,41.824,0,0,0-6.3,3.729,39.14,39.14,0,0,0-5.5,4.748Z" transform="translate(-114.09 -116.421)"/><path d="M212.761,152.444a29.454,29.454,0,0,1,3.4-3.2,31.438,31.438,0,0,1,3.8-2.634,25.014,25.014,0,0,1,4.158-1.977,21.826,21.826,0,0,1,4.44-1.11,21.678,21.678,0,0,0-4.324,1.4,24.536,24.536,0,0,0-3.942,2.213,30.426,30.426,0,0,0-3.521,2.813,28.4,28.4,0,0,0-3.035,3.272Z" transform="translate(-115.438 -112.842)"/><path d="M211.083,156.095c1.661-1.31,3.36-2.524,5.111-3.679a43.248,43.248,0,0,1,5.454-3.091,42.64,42.64,0,0,0-5.09,3.592c-1.609,1.305-3.177,2.68-4.656,4.1Z" transform="translate(-116.189 -110.247)"/><path d="M211.549,154.9a30.207,30.207,0,0,1,4.561-4.164,21.746,21.746,0,0,1,5.33-2.964,21.4,21.4,0,0,0-4.936,3.443,29.261,29.261,0,0,0-3.974,4.439Z" transform="translate(-115.98 -110.942)"/><path d="M209.238,164.74a52.242,52.242,0,0,1,9.137-7.671,58.7,58.7,0,0,1,10.439-5.64,56.652,56.652,0,0,1,11.31-3.48,62.556,62.556,0,0,1,11.742-1.211,62.323,62.323,0,0,0-11.677,1.514A56.014,56.014,0,0,0,229.063,152a57.959,57.959,0,0,0-10.159,5.835,51.436,51.436,0,0,0-8.721,7.706Z" transform="translate(-117.014 -111.404)"/><path d="M214.685,167.169l-4.137-.729-.253-.045.155-.21a31.162,31.162,0,0,1,5.561-5.644,48.753,48.753,0,0,1,6.543-4.489,64.672,64.672,0,0,1,14.682-5.948l3.854-.941c1.3-.258,2.6-.453,3.9-.682a73.224,73.224,0,0,1,7.863-.889c2.631-.166,5.271-.129,7.9-.179,2.63.155,5.256.31,7.871.515-2.631.056-5.252.022-7.868.056-2.612.194-5.23.236-7.828.514l-3.887.479a37.037,37.037,0,0,0-3.865.593c-1.281.243-2.567.453-3.841.724l-3.783.977a67.9,67.9,0,0,0-14.485,5.7,44.623,44.623,0,0,0-12.353,9.4l-.1-.255Z" transform="translate(-116.541 -111.102)"/><path d="M227.056,147.1a84.717,84.717,0,0,1,12.845-3.321,97.941,97.941,0,0,1,13.214-1.5,78.263,78.263,0,0,1,13.3.572,56.632,56.632,0,0,1,12.858,3.292c-2.169-.462-4.259-1.158-6.452-1.433-1.084-.172-2.149-.446-3.245-.546l-3.271-.369a104.513,104.513,0,0,0-13.14-.281c-4.384.184-8.755.617-13.113,1.2q-3.269.445-6.515,1.061C231.363,146.132,229.212,146.61,227.056,147.1Z" transform="translate(-109.046 -113.432)"/><path d="M209.774,160.839l3.2,5.356.1.172-.035.187a127.825,127.825,0,0,0-1.8,14.048,87.774,87.774,0,0,0,.032,14.187,88.118,88.118,0,0,1-.538-14.213,128.4,128.4,0,0,1,1.3-14.2l.068.357-3.391-5.237Z" transform="translate(-117.243 -105.098)"/><path d="M291.4,165.29l-11.342-7.439,11.973,6.375Z" transform="translate(-85.345 -106.435)"/><path d="M220.431,138.98a16.91,16.91,0,0,1,4.038-3.365,32.585,32.585,0,0,1,4.56-2.352,48.468,48.468,0,0,1,9.744-2.92c1.65-.389,3.339-.556,5.006-.831,1.679-.2,3.362-.346,5.043-.492,1.687-.068,3.372-.168,5.056-.21l5.058.014-5.052.14c-1.682.093-3.359.245-5.038.363-1.67.2-3.34.4-5,.643-1.65.324-3.318.54-4.941.977a47.563,47.563,0,0,0-9.5,3.164,31.731,31.731,0,0,0-4.346,2.41,16.112,16.112,0,0,0-3.619,3.175Z" transform="translate(-112.008 -119.42)"/><path d="M291.411,149.571a31.262,31.262,0,0,0-6.951-5.068,52.435,52.435,0,0,0-7.964-3.534,66.342,66.342,0,0,0-8.433-2.311c-1.427-.308-2.876-.507-4.314-.766l-4.355-.522,4.369.408c1.446.221,2.9.381,4.343.653a66.309,66.309,0,0,1,8.537,2.1,52.919,52.919,0,0,1,8.146,3.362,31.822,31.822,0,0,1,7.308,5.056Z" transform="translate(-94.584 -115.593)"/><path d="M290.1,155.781a31.592,31.592,0,0,0-3.952-2.848,39.019,39.019,0,0,0-4.316-2.323,38.472,38.472,0,0,0-4.573-1.786,40.158,40.158,0,0,0-4.767-1.217,40.341,40.341,0,0,1,4.812,1.068,38.666,38.666,0,0,1,4.654,1.653,39.412,39.412,0,0,1,4.427,2.207,31.867,31.867,0,0,1,4.123,2.781Z" transform="translate(-88.73 -111.015)"/><g transform="translate(83.214 153.561)"><path d="M216.7,229.551l-12.835,24.287s.164,22.362,11.525,49.8c0,0,21.877,17.311,48.784,15.608s29.845-5.362,29.845-5.362,18.466-3,22.527-5.877c0,0,1.237-.98.618-9.175s-2.886-36.96-2.886-36.96-7.346-1.624-20.491,1.2l-2.706-15.812-2.833.233-1.573-10.129s-27.682-.851-31.7-1.933l-.709,1.237s-25.579-4.175-32.074-7.114l-.925,1.857Z" transform="translate(-202.629 -227.933)" fill="#0090bb"/><path d="M260.756,321.1c-25.23,0-44.883-15.311-45.748-16l-.252-.2-.123-.3c-11.323-27.344-11.617-50.038-11.619-50.263v-.311l13.5-25.551,4.54,1.845.945-1.9,1.085.492c5.618,2.541,26.452,6.127,30.919,6.878l.755-1.318.92.247c3.184.858,23.76,1.656,31.418,1.891l1.027.032,1.554,10.007,2.816-.23,2.68,15.666c12.467-2.485,19.454-1,19.754-.935l.894.2.072.913s2.268,28.767,2.887,36.964c.437,5.79.062,9.33-1.084,10.239-4.039,2.867-19.689,5.564-22.751,6.071-1.527,1.155-7.527,3.99-30.311,5.431Q262.678,321.1,260.756,321.1Zm-43.964-17.745c2.482,1.864,23.093,16.715,47.69,15.153,25.111-1.589,28.877-4.839,29.025-4.975l.3-.371.4,0c4.964-.8,18.365-3.342,21.825-5.54.175-.418.731-2.262.284-8.2-.551-7.3-2.409-30.906-2.81-35.986-2.3-.308-8.945-.834-19.072,1.342l-1.262.271-2.732-15.967-2.851.234L286,239.064c-4.8-.156-24.433-.844-30.006-1.748l-.693,1.208-.847-.139c-1-.162-23.417-3.842-31.278-6.757l-.925,1.857-4.59-1.865L205.5,254.631C205.572,257.379,206.491,278.326,216.792,303.356Zm99.193,4.365Z" transform="translate(-203.012 -228.433)"/></g><g transform="translate(92.856 156.731)"><path d="M243.507,253.958l-33.833-8.4,8.459-14.936,1.076.61-7.656,13.518,32.252,8.007Z" transform="translate(-209.674 -230.623)"/></g><g transform="translate(123.082 162.032)"><path d="M272.781,265.794l-40.727-.777-1.493-6.647.089-.191,11.121-23.893,1.121.522-11.031,23.7,1.188,5.289,38.748.739,4.375-19.34,1.207.273Z" transform="translate(-230.561 -234.286)"/></g><g transform="translate(128.702 162.417)"><path d="M258.7,249.084l-24.258-.869.045-1.236,23.325.835,4.32-13.262,1.177.383Z" transform="translate(-234.444 -234.552)"/></g><g transform="translate(123.569 185.59)"><path d="M257.544,254.014c-18.156,0-26.55-2.229-26.647-2.256l.326-1.192c.113.029,11.566,3.058,36.821,1.978l.054,1.236C264.27,253.943,260.752,254.014,257.544,254.014Z" transform="translate(-230.897 -250.565)"/></g><g transform="translate(89.892 170.978)"><path d="M242.085,257.555l-34.459-7.226v-3.388l3.355-6.473,1.1.569-2.87,5.537,33.829,7.339-.954,1.693Zm-33.221-8.232,31.984,6.709v-.753l.291-.514-32.275-7Z" transform="translate(-207.626 -240.468)"/></g><g transform="translate(166.843 176.182)"><rect width="21.632" height="1.236" transform="translate(0 21.135) rotate(-77.701)"/></g><g transform="translate(170.008 188.531)"><path d="M264.023,273.015l-1.037-6.9L266.76,252.6l1.191.332-3.7,13.263.819,5.455,24.108-2.838.145,1.227Z" transform="translate(-262.986 -252.597)"/></g><g transform="translate(170.774 199.477)"><rect width="25.236" height="1.237" transform="translate(0 3.452) rotate(-7.863)"/></g><g transform="translate(110.32 230.881)"><path d="M282.676,292.036l-1.99-7.951-32.618-.906-1.5,2.081-23.212-2.018,1.607,6.48-1.2.3-2.024-8.16,24.236,2.107,1.469-2.043.327.008,33.884.941,2.217,8.862Z" transform="translate(-221.742 -281.861)"/></g><g transform="translate(113.371 235.932)"><path d="M224.469,288.846l-.619-1.069,4.2-2.425.2.022c.278.033,28.083,3.049,53.023.359l.133,1.23c-23.949,2.582-50.5-.065-53.09-.337Z" transform="translate(-223.85 -285.351)"/></g><g transform="translate(114.927 231.683)"><rect width="1.237" height="5.123" transform="translate(0 0.535) rotate(-25.634)"/></g><path d="M266.257,156.524s-8.8,30.417-11.656,39.385l5.2-23.266s-10.269,24.437-11.828,41.2c0,0,3.119-5.632,3.9-8.535,0,0-4.679,16.465-4.809,17.764l6.109-14.3-1.819,7.713s9.229-26.431,12.088-33.19a108.8,108.8,0,0,0,4.809-15.208l-3.64,7.41s1.6-9.878,1.647-11.569l-3.077,8.188S266.214,158.994,266.257,156.524Z" transform="translate(-100.099 -107.028)" fill="#47dffb"/><path d="M265.371,166.853s-6.11,19.628-7.8,21.318C257.572,188.171,266.151,179.462,265.371,166.853Z" transform="translate(-95.4 -102.409)" fill="#fff"/><path d="M246.255,189.273s6.239-20.451,6.239-21.881C252.494,167.392,251.714,182.037,246.255,189.273Z" transform="translate(-100.46 -102.168)" fill="#fff"/><path d="M235.666,212.837s-15.884-11.457-20.588-28.122c0,0,3.205,2.961,3.774,6.214s1.614,3.253,1.614,3.253l.2-2.156a21.791,21.791,0,0,1,3.973,8.42c-.188,1.483,2.217,3.046,2.217,3.046l-1.389-3.951S232.725,211.423,235.666,212.837Z" transform="translate(-114.402 -94.421)" fill="#fff"/><path d="M262.789,182.512s-4.159,18.89-7.972,22.357" transform="translate(-96.632 -95.406)" fill="#fff"/></g></g></svg>